<?xml version="1.0" encoding="UTF-8"?>
<svg version="1.1" xmlns="http://www.w3.org/2000/svg" width="500" height="500" viewBox="0 0 2000 2000" preserveAspectRatio="xMidYMid meet">
<path d="M0 0 C0.89795288 -0.00067474 1.79590576 -0.00134949 2.72106934 -0.00204468 C90.71684866 0.10212345 175.91301693 31.37319586 241.04296875 90.9140625 C243.12783619 92.80022094 245.23806743 94.64130467 247.3671875 96.4765625 C251.94411497 100.47488412 256.26845963 104.70138371 260.5625 109 C261.35591797 109.79422363 262.14933594 110.58844727 262.96679688 111.40673828 C267.82090344 116.311783 272.38977722 121.26044265 276.63671875 126.703125 C278.82219453 129.50259496 281.12479886 132.17988372 283.4375 134.875 C292.87459119 146.22854664 300.90509202 158.51061299 308.75 171 C309.40186279 172.03608398 310.05372559 173.07216797 310.7253418 174.13964844 C311.33418213 175.1196582 311.94302246 176.09966797 312.5703125 177.109375 C313.11187988 177.98045898 313.65344727 178.85154297 314.21142578 179.74902344 C315.59338825 182.19407069 316.64834511 184.62004578 317.625 187.25 C320.02213753 185.03015122 321.66420527 182.75973405 323.33984375 179.9609375 C323.85506592 179.11015625 324.37028809 178.259375 324.90112305 177.3828125 C325.44937744 176.47273438 325.99763184 175.56265625 326.5625 174.625 C346.21272136 142.46457027 370.67708708 111.59621142 399.625 87.25 C400.96498047 86.07630859 400.96498047 86.07630859 402.33203125 84.87890625 C457.91241283 36.46613044 527.73742807 9.04950321 600.625 1.25 C601.45604248 1.15428711 602.28708496 1.05857422 603.14331055 0.95996094 C630.66516134 -1.81284627 660.35651855 -1.36188366 687.625 3.25 C688.85379883 3.45399414 690.08259766 3.65798828 691.34863281 3.86816406 C708.78133458 6.83625975 725.79258796 10.79233246 742.625 16.25 C744.02226318 16.69400146 744.02226318 16.69400146 745.44775391 17.14697266 C765.10622035 23.44353285 784.05030853 31.69571251 802.4375 41.0625 C803.09411621 41.38661865 803.75073242 41.7107373 804.42724609 42.04467773 C811.56213882 45.82013846 815.62136889 51.02665993 818.02897644 58.67756653 C819.10163741 63.3071637 819.03131729 67.89343532 818.98828125 72.625 C818.98877975 73.70716797 818.98927826 74.78933594 818.98979187 75.90429688 C818.98745981 78.19370357 818.9777828 80.48311324 818.96118164 82.77246094 C818.93794609 86.18449365 818.94058399 89.59572258 818.94726562 93.0078125 C818.93320324 104.35051111 818.60360404 115.62652217 817.73046875 126.9375 C817.65323074 127.9584375 817.57599274 128.979375 817.49641418 130.03125 C816.24256248 144.69020761 816.24256248 144.69020761 812.875 147.9375 C808.46537013 148.54994859 804.88676237 145.4363339 801.42578125 142.97265625 C800.26153488 142.08788944 799.09885903 141.20105339 797.9375 140.3125 C753.42710938 107.13536194 698.25513781 87.08333101 642.625 85.25 C641.40425781 85.20875 640.18351562 85.1675 638.92578125 85.125 C562.39593777 83.8665442 490.89316794 117.7635503 436.625 170.25 C434.83185531 172.12938812 433.13401853 174.03907234 431.47265625 176.03515625 C430.0158692 177.78145277 428.51380641 179.48997977 426.99609375 181.18359375 C384.61361661 228.68666973 362.46757767 294.13446982 362.375 357.3125 C362.37266357 358.04634918 362.37032715 358.78019836 362.36791992 359.5362854 C362.35187514 373.01445247 363.43825909 386.16263513 365.34960938 399.51635742 C365.67495325 402.74585687 365.625 406.00415414 365.625 409.25 C334.605 409.25 303.585 409.25 271.625 409.25 C272.69637236 396.39353167 272.69637236 396.39353167 273.40852356 390.84506226 C274.76436986 380.10052058 274.98231788 369.44391434 274.9375 358.625 C274.93567719 357.70624084 274.93385437 356.78748169 274.93197632 355.84088135 C274.88406598 341.45560749 274.24892551 327.42528811 271.625 313.25 C271.44807617 312.26483398 271.27115234 311.27966797 271.08886719 310.26464844 C262.58341756 263.85926781 242.8516277 220.55451334 212.625 184.25 C212.19493652 183.72970215 211.76487305 183.2094043 211.32177734 182.67333984 C200.79443834 169.97828443 189.63990784 158.42400027 176.625 148.25 C175.53399833 147.36992309 174.4442085 146.48834233 173.35546875 145.60546875 C160.29803006 135.08095452 146.47497082 126.0409519 131.625 118.25 C130.33118408 117.56550781 130.33118408 117.56550781 129.01123047 116.8671875 C65.82451023 83.85607052 -9.25817803 76.24858181 -77.40722656 97.30126953 C-110.17194255 107.77541286 -140.94447845 124.28108079 -167.578125 146.05078125 C-170.55537511 148.03777209 -172.92613545 147.75165303 -176.375 147.25 C-179.06482625 143.75300048 -179.78487744 140.95251713 -180.00683594 136.59960938 C-180.06989929 135.48654419 -180.13296265 134.373479 -180.19793701 133.22668457 C-180.25121155 132.02781616 -180.30448608 130.82894775 -180.359375 129.59375 C-180.42408997 128.34106323 -180.48880493 127.08837646 -180.55548096 125.79772949 C-180.68960959 123.13817862 -180.81834596 120.47902398 -180.93798828 117.81884766 C-181.11846626 113.81947009 -181.33057717 109.82203226 -181.54296875 105.82421875 C-182.12124902 94.34096896 -182.59467419 82.89966515 -182.078125 71.40625 C-182.04257507 70.59740356 -182.00702515 69.78855713 -181.97039795 68.9552002 C-181.50470233 61.142851 -180.68323565 53.31287982 -175.375 47.25 C-172.62132598 45.23363625 -169.70748004 43.64438025 -166.6875 42.0625 C-165.81246826 41.59473145 -164.93743652 41.12696289 -164.03588867 40.64501953 C-113.43963571 14.10315902 -57.08152768 0.03885875 0 0 Z " fill="#000000" transform="translate(681.375,999.75)"/>
<path d="M0 0 C0.74890503 -0.00100708 1.49781006 -0.00201416 2.26940918 -0.00305176 C94.82634864 0.07989768 177.16740516 39.73249289 244.5 101.25 C245.50484479 102.15014558 246.51007228 103.04986407 247.515625 103.94921875 C269.04719124 123.33552503 287.1123949 146.11318142 301.4296875 171.328125 C302.10221558 172.51245117 302.10221558 172.51245117 302.78833008 173.72070312 C303.61506538 175.19960727 304.42587191 176.68757247 305.2175293 178.18554688 C306.40198824 180.41368283 306.40198824 180.41368283 308.5 183.25 C311.07017687 183.9846491 311.07017687 183.9846491 313.5 184.25 C313.86125977 183.67258057 314.22251953 183.09516113 314.59472656 182.50024414 C336.38639354 147.75127675 361.10719286 114.03567162 392.5 87.25 C393.39976562 86.46109375 394.29953125 85.6721875 395.2265625 84.859375 C466.1851136 23.0950956 561.74089585 -4.89060212 654.83740234 0.47705078 C684.04859902 2.57121547 712.8317753 9.34272796 740.625 18.375 C741.63900879 18.69960205 742.65301758 19.0242041 743.69775391 19.35864258 C752.06195163 22.15879342 756.23519326 25.00718378 760.23999023 32.94580078 C760.67641846 33.85056152 761.11284668 34.75532227 761.5625 35.6875 C762.03437744 36.65413574 762.50625488 37.62077148 762.99243164 38.61669922 C798.5 112.55234658 798.5 112.55234658 798.5 142.25 C788.92704834 139.65394531 781.09754719 134.42253245 773 128.85546875 C716.26746748 89.90788954 643.3686816 78.81254575 576.421875 91.0546875 C566.65130501 92.96043234 557.05499949 95.4702664 547.5 98.25 C546.72527344 98.47381348 545.95054687 98.69762695 545.15234375 98.92822266 C517.70774443 107.0297038 491.53190575 120.33604078 468.5 137.25 C467.91105957 137.68199707 467.32211914 138.11399414 466.71533203 138.55908203 C460.10487995 143.44700107 453.80851395 148.60174278 447.7578125 154.17578125 C445.72836537 156.04020413 443.65965844 157.83774554 441.5625 159.625 C432.63198815 167.43919787 424.89658528 175.99025972 417.5 185.25 C408.81311784 195.84589457 408.81311784 195.84589457 401.5 197.25 C399.08582573 197.35098862 396.66904087 197.39362771 394.2527771 197.40390015 C393.1556749 197.41047353 393.1556749 197.41047353 392.03640902 197.4171797 C389.58465414 197.43053815 387.13293519 197.43673993 384.68115234 197.44287109 C382.92340941 197.45077445 381.16566809 197.45904355 379.40792847 197.46765137 C373.63394719 197.49384662 367.85995875 197.50917753 362.0859375 197.5234375 C360.09632996 197.5287984 358.10672247 197.53417591 356.11711502 197.53956985 C347.83886277 197.56119581 339.56061244 197.57993124 331.2823391 197.59119225 C319.42932463 197.60742343 307.57663837 197.64058441 295.72374761 197.69759309 C287.38387691 197.73633373 279.04409384 197.75582988 270.70413554 197.76111281 C265.72604294 197.76476088 260.7483006 197.77672425 255.77030563 197.80921555 C251.08342997 197.83936836 246.39711518 197.84558235 241.71016312 197.83383179 C239.99535274 197.83361165 238.28051578 197.84186705 236.5657959 197.85948563 C226.49368468 197.95729464 217.53288935 197.77597432 209.6872921 190.58960533 C208.11369068 188.94544273 206.71428729 187.22997257 205.3125 185.4375 C204.21399976 184.10554146 203.11230888 182.77620935 202.0078125 181.44921875 C201.44094727 180.76263184 200.87408203 180.07604492 200.29003906 179.36865234 C197.20706594 175.71971062 193.95430215 172.23401519 190.6875 168.75 C190.08977783 168.10442139 189.49205566 167.45884277 188.8762207 166.79370117 C184.66204616 162.30179666 180.17840953 158.25038777 175.5 154.25 C174.42792185 153.30147106 173.35750035 152.35106506 172.2890625 151.3984375 C118.06282314 103.59787541 47.65550086 83.14450333 -23.88671875 86.71484375 C-77.07786448 90.06850789 -122.72457742 110.04336169 -166.5 139.25 C-169.5 141.25 -169.5 141.25 -172.1875 140.875 C-172.950625 140.66875 -173.71375 140.4625 -174.5 140.25 C-174.7217596 135.02347205 -174.00556308 130.62476338 -172.4453125 125.67578125 C-172.22849823 124.96268799 -172.01168396 124.24959473 -171.78829956 123.51489258 C-171.07830934 121.19383225 -170.35283795 118.87802074 -169.625 116.5625 C-169.2530249 115.36540909 -169.2530249 115.36540909 -168.87353516 114.14413452 C-161.45218874 90.26576176 -153.16413277 66.89835953 -142.5 44.25 C-142.09362305 43.38117187 -141.68724609 42.51234375 -141.26855469 41.6171875 C-132.89911107 23.97984637 -132.89911107 23.97984637 -122.32104492 20.07714844 C-113.44123053 17.11701249 -104.52606684 14.50660973 -95.4375 12.25 C-94.76000702 12.08046814 -94.08251404 11.91093628 -93.38449097 11.73626709 C-62.82081922 4.13877419 -31.49692339 0.02994841 0 0 Z " fill="#000000" transform="translate(688.5,829.75)"/>
<path d="M0 0 C0.65084564 0.13377045 1.30169128 0.26754089 1.97225952 0.40536499 C79.18796554 16.32284886 150.32536769 57.5330296 201.875 117.4375 C202.68928467 118.38375244 202.68928467 118.38375244 203.52001953 119.34912109 C216.05630388 134.03883091 227.31363087 149.57234208 237.03125 166.26953125 C239.23006287 170.04757625 241.53817874 173.74381478 243.875 177.4375 C246.23023461 177.52541738 246.23023461 177.52541738 248.875 176.4375 C250.64346966 173.92361736 252.07009616 171.57113869 253.5 168.875 C254.37676619 167.30853308 255.25840932 165.74478736 256.14453125 164.18359375 C256.59521973 163.38808105 257.0459082 162.59256836 257.51025391 161.77294922 C272.17710341 136.67400783 292.20540223 114.10737137 312.625 93.5625 C313.13144043 93.05138672 313.63788086 92.54027344 314.15966797 92.01367188 C318.23161528 87.95881701 322.51442183 84.17812043 326.875 80.4375 C327.81907715 79.62539063 327.81907715 79.62539063 328.78222656 78.796875 C374.57987096 39.69728402 429.96395444 12.72730875 488.875 0.4375 C489.7196582 0.26105957 490.56431641 0.08461914 491.43457031 -0.09716797 C514.56777016 -4.81260204 514.56777016 -4.81260204 525.875 2.4375 C544.56271634 15.10125228 561.99779323 29.47584723 578.875 44.4375 C579.5870459 45.06688477 580.2990918 45.69626953 581.03271484 46.34472656 C587.13366743 51.78206676 593.06172034 57.37738211 598.86401367 63.13134766 C599.83781336 64.09349392 600.81609632 65.05112163 601.79858398 66.00439453 C603.24942117 67.41241229 604.68640196 68.83336818 606.12109375 70.2578125 C607.38457642 71.49942139 607.38457642 71.49942139 608.67358398 72.76611328 C611.25379133 75.89715784 612.44445647 78.66007533 613.875 82.4375 C612.73772461 82.34662109 611.60044922 82.25574219 610.42871094 82.16210938 C606.10525113 81.8187565 601.78103161 81.48588107 597.45654297 81.15576172 C595.60444142 81.01299755 593.75254072 80.86759692 591.90087891 80.71923828 C519.96467412 74.96903594 447.38159955 92.34532265 391.359375 139.28515625 C388.01796048 142.17999807 384.72000315 145.11860045 381.45703125 148.1015625 C380.00434995 149.41578855 378.54350524 150.72152396 377.0559082 151.99609375 C372.21937172 156.14587835 367.76952846 160.51615114 363.4375 165.1875 C362.78644287 165.88270752 362.13538574 166.57791504 361.46459961 167.29418945 C357.76513627 171.27868662 354.28487961 175.3419813 350.9375 179.625 C346.57108839 185.10361079 341.85873861 189.06624042 334.875 190.4375 C332.48158124 190.53429605 330.0856156 190.57245471 327.69024658 190.57794189 C326.60327834 190.58239858 326.60327834 190.58239858 325.49435115 190.5869453 C323.06555833 190.59561859 320.63681489 190.59713939 318.20800781 190.59863281 C316.4667246 190.60326197 314.7254424 190.60828677 312.98416138 190.61367798 C308.25260741 190.62679496 303.52106763 190.63324563 298.78949833 190.63768864 C295.83253094 190.64062063 292.87556743 190.64472569 289.91860199 190.64919281 C280.66442103 190.66286619 271.41024891 190.6725335 262.15605855 190.6763947 C251.47822718 190.68087452 240.80052388 190.69841957 230.12273145 190.7273953 C221.86611585 190.74902201 213.60953626 190.75909952 205.35289264 190.76043582 C200.42302956 190.76148318 195.4932869 190.76737633 190.56345367 190.78525543 C185.9242868 190.80175308 181.28533065 190.80388338 176.64614487 190.79511642 C174.94663554 190.79434695 173.2471148 190.798677 171.54763412 190.80857468 C169.22073647 190.82132796 166.89458136 190.81539956 164.56768799 190.80499268 C163.2676244 190.80645924 161.96756081 190.8079258 160.62810135 190.8094368 C152.90891265 190.04445604 147.07939779 187.15724423 141.98046875 181.23828125 C141.03107422 180.00658203 141.03107422 180.00658203 140.0625 178.75 C126.28766388 161.60032903 110.37264711 146.7035064 92.875 133.4375 C92.2675293 132.97311523 91.66005859 132.50873047 91.03417969 132.03027344 C82.01188937 125.15546876 72.7696621 118.98336312 62.875 113.4375 C62.12041504 113.00969238 61.36583008 112.58188477 60.58837891 112.14111328 C20.74587775 89.74835357 -23.24814639 79.95992004 -68.6875 80.1875 C-69.69204224 80.18894012 -70.69658447 80.19038025 -71.73156738 80.19186401 C-86.34491036 80.21644356 -100.80702926 80.62953577 -115.33300781 82.36743164 C-117.125 82.4375 -117.125 82.4375 -119.125 81.4375 C-118.82751528 74.95100646 -116.88175946 72.35068231 -112.40234375 68.09375 C-111.82343887 67.52096313 -111.244534 66.94817627 -110.64808655 66.35803223 C-108.79986977 64.53663627 -106.93164701 62.73738359 -105.0625 60.9375 C-103.83266169 59.72920938 -102.60413231 58.51958496 -101.37695312 57.30859375 C-95.45571156 51.49000846 -89.45369297 45.81389292 -83.125 40.4375 C-82.07645603 39.51230471 -81.02952766 38.58527459 -79.984375 37.65625 C-70.1325567 29.00117501 -59.6993187 21.18308984 -49.125 13.4375 C-48.43245117 12.92848145 -47.73990234 12.41946289 -47.02636719 11.89501953 C-43.09862138 9.01592453 -39.13125226 6.20629983 -35.125 3.4375 C-34.23683594 2.79683594 -33.34867188 2.15617188 -32.43359375 1.49609375 C-22.21928773 -5.39336774 -11.43366122 -2.3882263 0 0 Z " fill="#000000" transform="translate(754.125,667.5625)"/>
<path d="M0 0 C3.42009202 2.8041955 6.57474112 5.75979796 9.67578125 8.91015625 C10.29251709 9.53293457 10.90925293 10.15571289 11.54467773 10.79736328 C15.79952927 15.14409421 19.776769 19.62944513 23.54296875 24.41015625 C25.26654733 26.59219512 27.01351624 28.72609687 28.80859375 30.84765625 C42.23681314 46.82101314 53.16835319 64.47184792 63.86328125 82.34765625 C66.20492361 82.5112044 66.20492361 82.5112044 68.86328125 81.34765625 C70.92380041 78.72795676 72.38098412 75.79232771 73.92578125 72.84765625 C79.26413632 63.16200227 85.28039787 54.22358111 91.86328125 45.34765625 C92.51079346 44.47052979 92.51079346 44.47052979 93.17138672 43.57568359 C125.63701739 -0.17241928 125.63701739 -0.17241928 138.86328125 -2.65234375 C144.72544508 -2.87870336 149.88550451 -2.24675296 155.59375 -0.96484375 C156.82465614 -0.6977359 156.82465614 -0.6977359 158.08042908 -0.42523193 C160.73950468 0.15584694 163.39524145 0.7506416 166.05078125 1.34765625 C166.95979187 1.54951538 167.86880249 1.75137451 168.80535889 1.95935059 C227.53523439 15.01960939 227.53523439 15.01960939 233.86328125 21.34765625 C234.37109375 24.1796875 234.37109375 24.1796875 233.86328125 27.34765625 C231.8144323 29.25015885 230.07140526 30.57381288 227.73828125 32.03515625 C226.44460786 32.90196042 225.15299741 33.77185001 223.86328125 34.64453125 C222.86554688 35.3106543 222.86554688 35.3106543 221.84765625 35.99023438 C218.71485572 38.13324261 215.71977974 40.43783236 212.73828125 42.78515625 C212.16110352 43.23947021 211.58392578 43.69378418 210.98925781 44.16186523 C205.96203808 48.17416371 201.22414403 52.46419551 196.53515625 56.86328125 C194.31531957 58.92733992 192.05816909 60.89895046 189.73828125 62.84765625 C181.71146684 69.84836242 175.02337685 78.13117706 168.70581055 86.66430664 C166.0431888 90.17728663 163.87351649 92.51176378 159.86328125 94.34765625 C156.79519303 94.7605352 153.76275574 94.71667272 150.67138672 94.67236328 C149.75151978 94.67119507 148.83165283 94.67002686 147.88391113 94.66882324 C144.83253663 94.66162339 141.7817186 94.63333939 138.73046875 94.60546875 C136.57944233 94.59731438 134.42840976 94.59065778 132.27737427 94.5854187 C126.58608631 94.56827038 120.89503483 94.53408768 115.20385742 94.49536133 C105.12949368 94.4293581 95.05497649 94.39160804 84.98046875 94.35546875 C83.34450587 94.34882957 83.34450587 94.34882957 81.67549324 94.34205627 C65.2400804 94.28029717 48.84461541 94.54258383 32.41992188 95.10302734 C22.47481623 95.44187921 12.53225335 95.56770883 2.58178711 95.58789062 C0.59607417 95.59456361 -1.38962414 95.60856862 -3.37524414 95.62890625 C-6.35185262 95.65930161 -9.32794161 95.66990494 -12.3046875 95.67578125 C-13.62015816 95.69430145 -13.62015816 95.69430145 -14.96220398 95.7131958 C-23.50133507 95.68222322 -29.79454335 93.32104927 -36.09375 87.47265625 C-39.12312434 84.32164356 -41.80293083 80.92272318 -44.52734375 77.5078125 C-58.28401463 60.57194248 -74.78423849 45.57863685 -93.1171875 33.73046875 C-93.72449707 33.3341626 -94.33180664 32.93785645 -94.95751953 32.52954102 C-96.58893666 31.48103422 -98.23921142 30.46203347 -99.890625 29.4453125 C-102.13671875 27.34765625 -102.13671875 27.34765625 -102.7890625 24.28125 C-102.13671875 21.34765625 -102.13671875 21.34765625 -99.90673828 19.77661133 C-97.33790361 18.4514404 -94.90805297 17.44560066 -92.1640625 16.55078125 C-91.19718506 16.23544434 -90.23030762 15.92010742 -89.23413086 15.59521484 C-88.19135986 15.26602051 -87.14858887 14.93682617 -86.07421875 14.59765625 C-84.42015015 14.07486084 -84.42015015 14.07486084 -82.73266602 13.54150391 C-65.09448312 8.07028026 -47.1864236 3.78543781 -29.06546021 0.25958252 C-27.67286648 -0.01148576 -26.28097084 -0.2861696 -24.88986206 -0.5647583 C-7.59282765 -3.99970871 -7.59282765 -3.99970871 0 0 Z " fill="#000000" transform="translate(934.13671875,593.65234375)"/>
</svg>
