<?xml version="1.0" encoding="UTF-8"?>
<svg id="Layer_1" data-name="Layer 1" xmlns="http://www.w3.org/2000/svg" viewBox="0 500 2000 900" preserveAspectRatio="xMidYMin meet">
  <defs>
    <style>
      .cls-1 {
        font-family: sans-serif;
        font-size: 33px;
        font-weight: 700;
      }

      .cls-1, .cls-2 {
        fill: #fff;
      }

      .cls-3 {
        fill: none;
      }

      .cls-4 {
        fill: #e8e99f;
      }

      .cls-5 {
        fill: #4da678;
      }

      .cls-6 {
        fill: #b7d884;
      }

      .cls-7 {
        fill: #72c273;
      }
    </style>
  </defs>
  <rect class="cls-3" width="2000" height="2000"/>
  <g>
    <g>
      <path class="cls-7" d="M793.04,884.81v-86.31h36.99v86.31c0,13.65,4.81,25.28,14.43,34.89,9.62,9.62,21.25,14.43,34.89,14.43s25.28-4.81,34.89-14.43c9.62-9.62,14.43-21.25,14.43-34.89v-86.31h36.99v135.63c0,23.84-8.43,44.18-25.28,61.03-16.85,16.85-37.2,25.28-61.03,25.28v-36.99c13.64,0,25.28-4.81,34.89-14.42,2.63-2.63,4.93-5.42,6.91-8.39-12.5,6.99-26.43,10.48-41.8,10.48-23.84,0-44.18-8.43-61.03-25.28-16.85-16.85-25.28-37.19-25.28-61.03Z"/>
      <path class="cls-7" d="M1175.86,971.12h-36.99v-15.29c-14.3,10.19-30.74,15.29-49.32,15.29-23.84,0-44.18-8.43-61.03-25.28-16.85-16.85-25.28-37.19-25.28-61.03s8.42-44.18,25.28-61.03c16.85-16.85,37.19-25.27,61.03-25.27s44.18,8.43,61.03,25.27c16.85,16.85,25.28,37.2,25.28,61.03v86.31ZM1124.45,919.71c9.62-9.62,14.43-21.25,14.43-34.89s-4.81-25.28-14.43-34.9c-9.62-9.62-21.25-14.42-34.89-14.42s-25.28,4.81-34.89,14.42c-9.62,9.62-14.43,21.25-14.43,34.9s4.81,25.28,14.43,34.89,21.25,14.43,34.89,14.43,25.28-4.81,34.89-14.43Z"/>
      <path class="cls-7" d="M1250.44,934.13c0,23.84-8.43,44.18-25.28,61.03-16.85,16.85-37.19,25.28-61.03,25.28v-36.99c13.65,0,25.28-4.81,34.89-14.42,9.62-9.62,14.43-21.25,14.43-34.89v-123.3h36.99v123.3ZM1250.44,761.51v36.99h-36.99v-36.99h36.99Z"/>
      <path class="cls-7" d="M1460.64,971.12h-36.99v-15.29c-14.3,10.19-30.74,15.29-49.32,15.29-23.84,0-44.18-8.43-61.03-25.28-16.85-16.85-25.28-37.19-25.28-61.03s8.42-44.18,25.28-61.03c16.85-16.85,37.19-25.27,61.03-25.27s44.18,8.43,61.03,25.27c16.85,16.85,25.27,37.2,25.27,61.03v86.31ZM1409.22,919.71c9.62-9.62,14.42-21.25,14.42-34.89s-4.81-25.28-14.42-34.9c-9.62-9.62-21.25-14.42-34.9-14.42s-25.28,4.81-34.89,14.42c-9.62,9.62-14.43,21.25-14.43,34.9s4.81,25.28,14.43,34.89c9.62,9.62,21.25,14.43,34.89,14.43s25.27-4.81,34.9-14.43Z"/>
      <path class="cls-7" d="M1498.22,884.81v-86.31h36.99v86.31c0,13.65,4.81,25.28,14.43,34.89,9.62,9.62,21.25,14.43,34.89,14.43s25.28-4.81,34.9-14.43c9.62-9.62,14.42-21.25,14.42-34.89v-86.31h36.99v135.63c0,23.84-8.43,44.18-25.27,61.03-16.85,16.85-37.2,25.28-61.03,25.28v-36.99c13.65,0,25.28-4.81,34.9-14.42,2.63-2.63,4.93-5.42,6.9-8.39-12.5,6.99-26.43,10.48-41.8,10.48-23.84,0-44.18-8.43-61.03-25.28-16.85-16.85-25.28-37.19-25.28-61.03Z"/>
      <path class="cls-7" d="M1855.77,823.78c16.85,16.85,25.27,37.2,25.27,61.03s-8.43,44.18-25.27,61.03c-16.85,16.85-37.2,25.28-61.03,25.28s-44.18-8.43-61.03-25.28c-16.85-16.85-25.28-37.19-25.28-61.03s8.43-44.18,25.28-61.03c16.85-16.85,37.19-25.27,61.03-25.27s44.18,8.43,61.03,25.27ZM1794.73,835.49c-13.65,0-25.28,4.81-34.89,14.42-9.62,9.62-14.43,21.25-14.43,34.9s4.81,25.28,14.43,34.89c9.62,9.62,21.25,14.43,34.89,14.43s25.28-4.81,34.9-14.43c9.62-9.62,14.42-21.25,14.42-34.89s-4.81-25.28-14.42-34.9c-9.62-9.62-21.25-14.42-34.9-14.42Z"/>
    </g>
    <text class="cls-1" transform="translate(820 1185.28)"><tspan x="0" y="0">SUSTAINABLE ENVIRONMENTAL</tspan><tspan x="337.38" y="42">SOLUTIONS</tspan></text>
    <text class="cls-1" transform="translate(1564.41 1074.45)"><tspan x="0" y="0">an ECCL Company</tspan></text>
    <g>
      <path class="cls-5" d="M697.03,1080.49c-.69,7.75-1.92,8.15-8.03,3.42-21.54-16.66-45.85-26.81-72.63-31.48-67.18-11.72-140.11,27.23-168.14,89.36-14.27,31.65-18.17,63.77-12.29,96.69h-54.32c14.74-81.74-34.27-160.43-114.31-182.07-50.18-13.55-96.48-4.05-138.26,27.04-1.97,1.45-3.82,4.36-6.39,3.29-2.86-1.17-2.45-4.7-2.53-7.34-.4-14.43-2.66-28.83-.59-43.34.5-3.55,1.61-5.92,4.76-7.65,35.7-19.78,73.8-28.7,114.63-25.93,53.04,3.63,97.94,24.78,135.21,62.39,11.69,11.8,21.67,24.99,30.13,39.32,1.26,2.13,2.63,4.21,4.55,7.28,9.35-16.08,19.13-30.2,30.96-42.88,32.87-35.25,73.08-56.77,120.6-64.18,45.54-7.11,88.7.65,129.49,22.14,5.17,2.72,7.91,5.83,8.37,11.95,1.04,14.08.03,28.04-1.22,41.99Z"/>
      <path class="cls-7" d="M690.67,985.1c-8.37-3.17-13.63-8.13-19.68-11.7-56.67-33.38-131.79-26.49-181.67,16.6-7.7,6.65-14.86,13.72-20.99,21.79-2.93,3.86-6.4,5.36-11.19,5.35-32.42-.13-64.84-.13-97.26-.02-4.57.02-7.64-1.68-10.54-5.18-35.34-42.62-80.87-62.46-136.02-59.18-28.1,1.67-53.83,11.22-77.13,27.14-2.27,1.55-4.62,3.01-6.96,4.46-.35.22-.86.17-1.44.27-1.89-2.2-.14-4.36.39-6.33,5.13-19.14,11.74-37.72,20.72-55.44,2.13-4.21,4.97-6.7,9.51-8.11,82.85-25.62,155.06-7.39,216.86,52.84,11.87,11.57,21.59,25.11,29.75,39.6,2.88,5.11,4.22,5.19,7.36,0,32.79-54.33,80.13-88.25,142.62-100.29,36.26-6.98,71.82-3.62,106.57,8.81,2.03.72,3.83,1.54,4.88,3.5,10.91,20.33,18.63,41.81,24.23,65.9Z"/>
      <path class="cls-6" d="M621.59,856.31c-11.89-1.09-22.35-2.31-32.9-1.98-48.77,1.53-88.77,20.97-119.74,58.69-3.36,4.1-6.9,6.05-12.26,6.02-32.18-.17-64.36-.13-96.53-.03-4.48.01-7.67-1.37-10.64-4.94-37.93-45.64-86.5-64.93-145.43-58.32-1.14.13-2.29.26-3.44.28-1.3.03-3.05.75-3.56-.98-.23-.77.62-2.11,1.33-2.87,15.48-16.49,32.71-30.92,51.61-43.36,2.63-1.73,5.3-1.11,7.99-.69,37.91,6,71.54,21.37,100.88,46.13,18.62,15.71,34.28,33.93,46.3,55.14,2.76,4.87,4.16,4.85,6.97.07,21.74-37.13,51.95-65.19,90.74-83.9,18.13-8.74,37.17-14.58,57.09-17.58,3.12-.47,5.77-.29,8.48,1.53,18.59,12.47,35.67,26.72,50.94,43.11.58.62.89,1.49,2.16,3.71Z"/>
      <path class="cls-4" d="M429.06,820.48c-22.73-1.27-45.45,1.02-68.19.49-4.96-.12-8.51-1.4-11.7-5.53-9.62-12.44-21.23-22.87-34.18-31.79-1.44-.99-3.71-1.68-3.55-3.8.17-2.25,2.61-2.36,4.23-2.94,14.96-5.36,30.41-8.78,46.03-11.58,4.8-.86,8.21.4,11.61,3.91,12.39,12.78,23.17,26.74,31.9,42.23,2.78,4.93,4.26,4.76,6.95-.08,8.53-15.34,19.46-28.91,31.47-41.68,3.65-3.88,7.29-5.48,12.74-4.41,15.34,3.02,30.53,6.55,45.35,11.54,1.65.55,4.02.69,4.24,2.94.22,2.17-2.04,2.85-3.47,3.85-13.45,9.4-25.59,20.2-35.52,33.33-1.84,2.43-3.87,3.6-6.93,3.57-10.33-.1-20.66-.04-30.99-.04Z"/>
    </g>
    <rect class="cls-2" x="793.04" y="1056.22" width="738.13" height=".47"/>
  </g>
</svg>