<?xml version="1.0" encoding="UTF-8"?>
<svg version="1.1" xmlns="http://www.w3.org/2000/svg" viewBox="0 500 2000 900" preserveAspectRatio="xMidYMin meet">
<path d="M0 0 C0.51401367 0.4522998 1.02802734 0.90459961 1.55761719 1.37060547 C17.92643435 15.80734872 30.85287324 32.36015607 42.13671875 50.96484375 C43.70359254 53.78114884 43.70359254 53.78114884 45 55 C45.87398438 53.5459375 45.87398438 53.5459375 46.765625 52.0625 C55.4157527 37.8455648 64.92698925 24.50422791 76.52539062 12.52587891 C77.54634789 11.46942478 78.56023145 10.40610583 79.56835938 9.33740234 C92.96304496 -4.85344287 108.15353522 -16.20504529 125 -26 C125.60489258 -26.35400879 126.20978516 -26.70801758 126.83300781 -27.07275391 C155.07729248 -43.40172043 188.44399511 -52.0901724 221 -53 C222.19496094 -53.03996094 223.38992188 -53.07992187 224.62109375 -53.12109375 C257.36964516 -53.68174367 289.06082925 -46.20297984 318.6875 -32.375 C319.64978516 -31.9320459 320.61207031 -31.4890918 321.60351562 -31.03271484 C327.04116201 -28.39098678 330.606372 -26.04551617 334 -21 C335.16060217 -17.5181935 335.14610045 -14.75934216 335.16796875 -11.0859375 C335.17206757 -10.40274445 335.17616638 -9.71955139 335.1803894 -9.01565552 C335.18995337 -6.80205269 335.18991909 -4.58862049 335.1875 -2.375 C335.18789276 -1.62822998 335.18828552 -0.88145996 335.18869019 -0.11206055 C335.16970763 29.83029237 335.16970763 29.83029237 332 33 C328.68757383 33.45828663 327.28672605 33.18573525 324.44921875 31.34765625 C323.08216797 30.21650391 323.08216797 30.21650391 321.6875 29.0625 C314.61396069 23.45856966 306.98511441 19.16707924 299 15 C298.38785645 14.67757324 297.77571289 14.35514648 297.14501953 14.02294922 C261.0157593 -4.73364309 218.63929126 -6.58081268 180.140625 5.2734375 C161.65549253 11.28491906 144.06536295 20.73977624 129 33 C128.43539063 33.45777832 127.87078125 33.91555664 127.2890625 34.38720703 C95.37349495 60.4405538 75.95599886 97.7325799 71.17431641 138.64868164 C70.76944449 144.10991618 70.85804739 149.58963262 70.875 155.0625 C70.87113281 156.28388672 70.86726563 157.50527344 70.86328125 158.76367188 C70.86457031 159.98763672 70.86585938 161.21160156 70.8671875 162.47265625 C70.86831543 163.55812744 70.86944336 164.64359863 70.87060547 165.76196289 C71.06664129 172.1826909 71.5727005 178.59050756 72 185 C53.85 185 35.7 185 17 185 C17.66 178.07 18.32 171.14 19 164 C20.19629431 122.42877274 7.43399369 81.02173788 -21.125 50.125 C-22.63211223 48.53265505 -24.14886103 46.95076229 -25.67480469 45.37646484 C-26.79468456 44.21325874 -27.88870269 43.02523717 -28.9765625 41.83203125 C-53.60302055 15.52403091 -94.17094068 -0.50038667 -129.76318359 -2.1262207 C-168.4085868 -3.10462466 -204.20401079 7.07771176 -235 31 C-235.99 31.99 -235.99 31.99 -237 33 C-240.0625 33.1875 -240.0625 33.1875 -243 33 C-248.69877515 27.30122485 -246.22231114 3.69002811 -246.25 -4.5 C-246.07838483 -20.40356079 -246.07838483 -20.40356079 -242.68359375 -24.64453125 C-222.14518862 -42.05852576 -185.91277477 -49.8266705 -160 -52 C-159.30874023 -52.06026367 -158.61748047 -52.12052734 -157.90527344 -52.18261719 C-99.8129335 -57.00027943 -43.51637017 -38.74154133 0 0 Z " fill="#4BA778" transform="translate(364,1054)"/>
<path d="M0 0 C0.90878906 0.71671875 1.81757813 1.4334375 2.75390625 2.171875 C9.78680041 7.81419692 16.44930131 13.81161376 23 20 C23.86753906 20.81339844 24.73507812 21.62679687 25.62890625 22.46484375 C37.19534723 33.6330661 49.56215492 48.63217696 55 64 C59.25865408 62.58044864 60.39644373 59.44116256 62.5625 55.75 C75.20934155 34.90707692 91.7961444 15.99805251 111 1 C112.40378906 -0.11181641 112.40378906 -0.11181641 113.8359375 -1.24609375 C156.43138246 -34.19190038 212.84475663 -48.1916996 266.07421875 -42.22973633 C306.21131281 -36.78138079 306.21131281 -36.78138079 314.58789062 -28.41381836 C315.99308826 -26.3674837 316.96718445 -24.25969517 318 -22 C318.59039063 -20.83597656 319.18078125 -19.67195312 319.7890625 -18.47265625 C327.14239443 -3.7605749 332.77001718 11.75806136 337.0625 27.625 C337.27865967 28.41245605 337.49481934 29.19991211 337.7175293 30.01123047 C338.67276145 33.73930641 339.13446102 36.32558702 338 40 C332.90394892 37.64714237 328.15862811 35.22446394 323.6875 31.8125 C293.12648709 9.78350489 250.25309571 3.59790173 213.75 9.5 C185.74716022 14.49709265 159.56853568 26.41579002 138 45 C137.05640625 45.80953125 136.1128125 46.6190625 135.140625 47.453125 C128.86485032 52.96643194 123.33574101 58.8181334 118.18408203 65.40478516 C117.72372559 65.97374512 117.26336914 66.54270508 116.7890625 67.12890625 C116.39412598 67.63494385 115.99918945 68.14098145 115.59228516 68.66235352 C110.63468204 72.8271354 104.05067821 72.29084875 97.95898438 72.2746582 C96.9631282 72.27976913 95.96727203 72.28488007 94.9412384 72.29014587 C91.65868067 72.30401399 88.3763335 72.3030874 85.09375 72.30078125 C82.80741295 72.30466922 80.52107661 72.3090041 78.23474121 72.31376648 C73.44667212 72.32122236 68.65867678 72.32094161 63.87060547 72.31567383 C57.73712397 72.30987495 51.60394402 72.32682359 45.47051239 72.3500185 C40.75045001 72.36475332 36.03046034 72.36562796 31.31037903 72.36250877 C29.04896954 72.36302194 26.78755598 72.3682588 24.52616882 72.37832069 C21.36425175 72.3906649 18.20292336 72.38390555 15.04101562 72.37231445 C13.64282341 72.38378006 13.64282341 72.38378006 12.21638489 72.39547729 C6.11002235 72.3460312 1.77409841 71.44435883 -2.95947266 67.2734375 C-3.5219873 66.64695312 -4.08450195 66.02046875 -4.6640625 65.375 C-5.30472656 64.67391113 -5.94539062 63.97282227 -6.60546875 63.25048828 C-7.27191406 62.50782715 -7.93835938 61.76516602 -8.625 61 C-36.97969504 30.25433547 -73.60288681 9.820569 -116.0378418 7.85961914 C-152.88284026 6.77998126 -185.25748622 14.39133801 -215.85913086 35.27783203 C-216.60557861 35.77653809 -217.35202637 36.27524414 -218.12109375 36.7890625 C-218.7752124 37.23975098 -219.42933105 37.69043945 -220.10327148 38.15478516 C-222.47464024 39.21150785 -223.60593887 38.86929793 -226 38 C-222.83457599 23.09329124 -218.17000146 8.93259672 -212.4375 -5.1875 C-211.97867432 -6.32106934 -211.51984863 -7.45463867 -211.04711914 -8.62255859 C-202.79769781 -28.56001411 -202.79769781 -28.56001411 -193.890625 -32.30859375 C-181.4543442 -36.16490829 -168.81597413 -38.74131289 -156 -41 C-155.2467041 -41.13567383 -154.4934082 -41.27134766 -153.71728516 -41.41113281 C-99.76528496 -50.71546124 -42.39922992 -33.82205428 0 0 Z " fill="#71C273" transform="translate(352,946)"/>
<path d="M0 0 C45.83083802 15.60862157 89.18703219 48.7540669 112.56518555 91.70605469 C113.26328389 93.35980223 113.94163716 95.0227812 114.56518555 96.70605469 C118.84135902 95.28066353 120.00829003 92.0974677 122.19018555 88.39355469 C150.94200659 41.11721121 197.18572256 8.53616203 250.55737305 -5.13769531 C270.3491474 -9.91237227 270.3491474 -9.91237227 275.97924805 -7.07910156 C291.20472828 2.24485967 304.91719797 14.44895803 318.06518555 26.45605469 C318.92841431 27.23396362 318.92841431 27.23396362 319.80908203 28.02758789 C323.66909557 31.59848307 326.70310623 35.2847829 329.56518555 39.70605469 C329.56518555 40.36605469 329.56518555 41.02605469 329.56518555 41.70605469 C328.81881836 41.63386719 328.07245117 41.56167969 327.3034668 41.48730469 C292.72310173 38.64832375 260.03190574 41.35900477 228.56518555 56.70605469 C227.11112305 57.41181641 227.11112305 57.41181641 225.62768555 58.13183594 C208.29553731 67.07502289 193.08613488 80.30593259 180.1862793 94.79589844 C179.32131836 95.75625 178.45635742 96.71660156 177.56518555 97.70605469 C176.77241211 98.61484375 175.97963867 99.52363281 175.1628418 100.45996094 C169.45650191 105.39401422 162.52516872 104.99494521 155.35058594 104.95239258 C154.34804276 104.95417511 153.34549957 104.95595764 152.31257629 104.95779419 C149.01253098 104.95979783 145.71284064 104.94577727 142.4128418 104.92871094 C141.28186003 104.92458128 140.15087826 104.92045162 138.98562431 104.91619682 C133.00462315 104.89383273 127.02384162 104.85910923 121.04296875 104.81420898 C114.87487655 104.77028409 108.70751332 104.76818773 102.53929996 104.77575016 C97.7854671 104.77400715 93.03220338 104.74131228 88.27856255 104.70025444 C86.00490017 104.68596637 83.73113366 104.68325671 81.45744514 104.69249153 C78.27348642 104.70250297 75.09278313 104.66861044 71.90917969 104.62426758 C70.9764624 104.63694168 70.04374512 104.64961578 69.08276367 104.66267395 C62.86683105 104.51417105 59.71532239 102.91822302 55.27501583 98.5712347 C52.97653253 96.06391853 50.73287694 93.5175426 48.5222168 90.93261719 C23.40344834 62.35437763 -12.83042468 44.32477933 -50.70288086 40.87817383 C-56.00714802 40.54399078 -61.30942698 40.56009803 -66.62231445 40.58105469 C-67.80672119 40.58298828 -68.99112793 40.58492187 -70.21142578 40.58691406 C-78.65617907 40.62852807 -87.02595557 40.917284 -95.43481445 41.70605469 C-95.73676346 38.6540113 -95.76475429 37.16981285 -93.95703125 34.62890625 C-93.27294189 33.95827148 -92.58885254 33.28763672 -91.8840332 32.59667969 C-91.12856201 31.84668701 -90.37309082 31.09669434 -89.59472656 30.32397461 C-88.77883057 29.54256104 -87.96293457 28.76114746 -87.12231445 27.95605469 C-86.2928833 27.14692627 -85.46345215 26.33779785 -84.60888672 25.50415039 C-78.78991966 19.87822156 -72.88125951 14.60569858 -66.43481445 9.70605469 C-65.04606168 8.62496302 -63.65810843 7.54284388 -62.27075195 6.45996094 C-60.76372587 5.29097766 -59.25591198 4.12300929 -57.74731445 2.95605469 C-57.04598389 2.41231201 -56.34465332 1.86856934 -55.62207031 1.30834961 C-37.35626271 -12.66569202 -20.84534716 -6.76470102 0 0 Z " fill="#B7D984" transform="translate(292.434814453125,815.2939453125)"/>
<path d="M0 0 C12.54 0 25.08 0 38 0 C38.0093457 2.88081299 38.01869141 5.76162598 38.02832031 8.72973633 C38.06217695 18.27720441 38.1177742 27.82445832 38.18390274 37.37175465 C38.22331227 43.15694582 38.25553283 48.94198625 38.27099609 54.72729492 C38.28620551 60.31662842 38.32072738 65.90554733 38.36830902 71.49469566 C38.38307863 73.62074862 38.39103846 75.74686077 38.39188385 77.87296486 C38.18935553 93.4108708 38.18935553 93.4108708 43 108 C43.54140625 109.06734375 44.0828125 110.1346875 44.640625 111.234375 C52.33737738 123.26522096 63.37737494 131.39177085 77.5 134.5 C91.03041801 136.29079062 103.74485109 133.61703804 114.87109375 125.6953125 C125.12687084 117.52832671 131.64848012 108.05724265 134 95 C134.7423712 87.68052051 134.60637418 80.29763137 134.609375 72.94921875 C134.62438082 70.83786262 134.64111295 68.72651812 134.65948486 66.6151886 C134.70290086 61.09977637 134.72310006 55.58452241 134.73822021 50.06896973 C134.7578847 44.42414083 134.79984384 38.77948057 134.83984375 33.13476562 C134.91486675 22.08986754 134.9632622 11.04509185 135 0 C147.54 0 160.08 0 173 0 C173.06788206 19.05501644 173.12307754 38.10993405 173.15543652 57.16504097 C173.17086482 66.01388014 173.19187655 74.8626385 173.22631836 83.71142578 C173.25634496 91.42957901 173.2756043 99.14767368 173.28226548 106.86588371 C173.28615542 110.94759049 173.29521173 115.02912983 173.31719017 119.11078262 C173.33776561 122.96360951 173.34379197 126.81620221 173.33932304 130.66907883 C173.34013894 132.07258635 173.34597799 133.47610287 173.35761642 134.87956238 C173.5591812 160.47165396 164.21907309 181.01651299 146.9375 199.5 C130.09566452 215.82184743 109.18995577 223 86 223 C86 210.46 86 197.92 86 185 C91.28 184.01 96.56 183.02 102 182 C109.86521713 178.71646275 119.94604104 174.10791793 124 166 C123.28199219 166.32613281 122.56398438 166.65226563 121.82421875 166.98828125 C99.09051284 176.58569881 73.81390155 176.24821601 51 167 C41.94457736 162.88296544 34.38092678 157.639358 27 151 C26.29230469 150.37480469 25.58460938 149.74960937 24.85546875 149.10546875 C10.31508992 135.48282586 0.59596947 115.61345995 -0.3470459 95.67529297 C-0.5095007 89.56421633 -0.45117943 83.45592747 -0.390625 77.34375 C-0.38314717 75.10217803 -0.37746155 72.86059945 -0.37347412 70.61901855 C-0.35833912 64.77302398 -0.31916429 58.92743889 -0.2746582 53.081604 C-0.23344113 47.09482357 -0.2154071 41.10797575 -0.1953125 35.12109375 C-0.15265625 23.41385537 -0.08240813 11.7070261 0 0 Z " fill="#71C273" transform="translate(793,798)"/>
<path d="M0 0 C12.54 0 25.08 0 38 0 C38.0093457 2.8452832 38.01869141 5.69056641 38.02832031 8.62207031 C38.06219548 18.05777382 38.11780284 27.49326105 38.18390274 36.92879105 C38.22329179 42.64557233 38.2555223 48.36220155 38.27099609 54.07910156 C38.28621912 59.60360294 38.32076471 65.12768602 38.36830902 70.65200043 C38.38306472 72.75210672 38.39103765 74.85227276 38.39188385 76.95243073 C38.40429408 92.31879292 39.4686778 104.35266862 49 117 C49.5775 117.86625 50.155 118.7325 50.75 119.625 C59.26186551 128.60974692 70.73688335 133.96881943 83 135 C96.24844832 135.13595899 106.41161878 131.83368041 117 124 C117.86625 123.4225 118.7325 122.845 119.625 122.25 C127.10345733 115.16514569 133.40817342 104.49959697 134.1386652 94.00854111 C134.14511775 93.30429127 134.1515703 92.60004143 134.15821838 91.87445068 C134.1680072 91.06119324 134.17779602 90.24793579 134.18788147 89.41003418 C134.19363693 88.52674438 134.1993924 87.64345459 134.20532227 86.73339844 C134.21522186 85.79647156 134.22512146 84.85954468 134.23532104 83.89422607 C134.26689254 80.79930137 134.29167635 77.70436131 134.31640625 74.609375 C134.33697953 72.46274417 134.3579761 70.31611735 134.37937927 68.16949463 C134.43456131 62.52082575 134.48398769 56.87212054 134.53222656 51.22338867 C134.58246979 45.45878874 134.63814114 39.69424154 134.69335938 33.9296875 C134.80089368 22.61983504 134.90184757 11.30993777 135 0 C147.54 0 160.08 0 173 0 C173.0905831 19.13359037 173.16414567 38.2670049 173.20724869 57.40075588 C173.22780147 66.28653625 173.25578124 75.17217312 173.30175781 84.05786133 C173.34185028 91.81010371 173.36748562 99.56224207 173.37635398 107.31458527 C173.38153115 111.41265351 173.39354377 115.51042439 173.42292023 119.60839653 C173.69437063 159.001915 173.69437063 159.001915 165.25 174.375 C164.90493408 175.02944092 164.55986816 175.68388184 164.2043457 176.3581543 C153.26928205 196.58740145 136.08945858 211.72367842 114.2734375 219.29296875 C104.40440912 222.21986475 96.41302684 223 86 223 C86 210.46 86 197.92 86 185 C91.28 184.01 96.56 183.02 102 182 C110.91138657 178.33060553 117.19608089 173.77381328 124 167 C121.71462271 167.52907302 119.52043778 168.15985407 117.29296875 168.90234375 C95.0936823 176.3021059 70.5674059 176.22589437 49.15869141 166.13183594 C27.17300129 155.04789807 11.48206289 137.1164142 3.2265625 114.01953125 C0.64162469 105.94570296 -0.29463919 98.13644912 -0.22705078 89.68505859 C-0.22734283 88.70824127 -0.22763489 87.73142395 -0.22793579 86.7250061 C-0.22655507 83.53272259 -0.21105366 80.34067967 -0.1953125 77.1484375 C-0.19157789 74.92070646 -0.18873304 72.69297376 -0.18673706 70.46524048 C-0.17913588 64.62916452 -0.15951783 58.79318962 -0.1373291 52.95715332 C-0.11679465 46.9909807 -0.10771915 41.0247916 -0.09765625 35.05859375 C-0.07626841 23.37234451 -0.04111517 11.68619651 0 0 Z " fill="#71C273" transform="translate(1498,798)"/>
<path d="M0 0 C13.14051191 10.74958908 23.28593995 23.19493876 29.375 39.125 C29.6136377 39.74511963 29.85227539 40.36523926 30.09814453 41.00415039 C33.29258486 49.89106952 34.30326841 58.94348723 34.22705078 68.33666992 C34.22734283 69.3038797 34.22763489 70.27108948 34.22793579 71.26760864 C34.22655735 74.42199094 34.21106703 77.57612841 34.1953125 80.73046875 C34.19157707 82.93435029 34.18873261 85.13823351 34.18673706 87.34211731 C34.1791423 93.11077552 34.15952994 98.8793312 34.1373291 104.64794922 C34.11678065 110.54718642 34.10771618 116.44644037 34.09765625 122.34570312 C34.07627977 133.89718745 34.04113194 145.44856911 34 157 C21.46 157 8.92 157 -4 157 C-4.33 152.38 -4.66 147.76 -5 143 C-6.381875 143.886875 -7.76375 144.77375 -9.1875 145.6875 C-28.5899431 157.17721491 -51.12515584 159.20838685 -73 155 C-88.00952349 151.08713033 -100.49318334 144.35071577 -112 134 C-112.70769531 133.37480469 -113.41539063 132.74960937 -114.14453125 132.10546875 C-129.24560088 117.95752383 -138.46747197 97.90581132 -139.3828125 77.31640625 C-139.70327931 64.33574933 -139.34400439 52.31051764 -135 40 C-134.69964844 39.07832031 -134.39929687 38.15664063 -134.08984375 37.20703125 C-130.13441425 26.16265017 -123.0154376 17.37977568 -115 9 C-114.38640625 8.31164062 -113.7728125 7.62328125 -113.140625 6.9140625 C-84.60165799 -23.94217106 -32.30927384 -24.81134109 0 0 Z M-92 40 C-101.01537777 52.3420128 -102.35745604 65.08719287 -101 80 C-100.205378 84.05824809 -98.96004797 87.36985199 -97 91 C-96.50242187 91.93070313 -96.00484375 92.86140625 -95.4921875 93.8203125 C-88.28898057 106.11601921 -77.59753295 113.60298259 -64.1484375 117.9140625 C-51.03759728 120.81469087 -37.70545205 118.35734065 -26.375 111.3125 C-14.38135423 102.77938643 -6.91743822 92.47798219 -4 78 C-2.54166029 63.15145027 -5.5980939 49.85614646 -15 38 C-24.19313308 27.9146391 -35.61772279 21.80835248 -49.2109375 20.75 C-66.49550654 20.1395075 -80.89761913 26.83453303 -92 40 Z " fill="#71C273" transform="translate(1427,815)"/>
<path d="M0 0 C3.65808002 3.08815345 7.06951288 6.39012786 10.45605469 9.77197266 C11.68001953 10.97853516 11.68001953 10.97853516 12.92871094 12.20947266 C27.08829744 26.97624554 34.84428542 46.81484261 34.68310547 67.17871094 C34.68339752 68.16528183 34.68368958 69.15185272 34.68399048 70.1683197 C34.68260956 73.39306785 34.66710715 76.61757794 34.65136719 79.84228516 C34.64763265 82.09243646 34.64478776 84.3425894 34.64279175 86.59274292 C34.63519 92.48800216 34.61557144 98.38316137 34.59338379 104.27838135 C34.57285058 110.30487719 34.5637741 116.33138934 34.55371094 122.35791016 C34.53232209 134.16264846 34.49716837 145.96728655 34.45605469 157.77197266 C21.91605469 157.77197266 9.37605469 157.77197266 -3.54394531 157.77197266 C-3.54394531 153.15197266 -3.54394531 148.53197266 -3.54394531 143.77197266 C-4.4759375 144.30306641 -5.40792969 144.83416016 -6.36816406 145.38134766 C-28.15359324 157.55792871 -51.98281154 160.99149993 -76.34472656 154.80712891 C-98.47529109 147.98181461 -116.95857929 133.32848647 -128.72363281 113.29931641 C-130.69346053 109.48224682 -132.38182473 105.6544656 -133.91894531 101.64697266 C-134.15774414 101.02669189 -134.39654297 100.40641113 -134.64257812 99.76733398 C-142.00399176 79.27842114 -140.92260812 54.18595776 -131.80834961 34.46630859 C-120.98947431 12.39632374 -103.21137408 -4.46798693 -79.78222656 -12.52099609 C-53.40324551 -20.28611592 -22.11748047 -17.59186065 0 0 Z M-90.54394531 39.77197266 C-99.26264772 51.91587958 -102.0402319 64.02681134 -100.54394531 78.77197266 C-98.95051997 87.22522911 -95.79333065 94.00701675 -90.54394531 100.77197266 C-89.43019531 102.31884766 -89.43019531 102.31884766 -88.29394531 103.89697266 C-79.51308054 113.07696764 -68.19399101 118.70825601 -55.54394531 119.77197266 C-40.88214091 119.92243587 -28.27359729 115.62563879 -17.28613281 105.74072266 C-8.15318133 96.1563325 -3.13500899 84.15168255 -3.23144531 70.95947266 C-3.23635986 70.16484619 -3.24127441 69.37021973 -3.24633789 68.55151367 C-3.36598394 62.54773602 -4.06641679 57.29876705 -6.54394531 51.77197266 C-6.87265625 51.03076172 -7.20136719 50.28955078 -7.54003906 49.52587891 C-13.89874768 36.83046412 -24.54756404 27.97560136 -37.85644531 23.33447266 C-58.02813847 17.78964705 -76.71188551 24.61704807 -90.54394531 39.77197266 Z " fill="#71C273" transform="translate(1141.5439453125,814.22802734375)"/>
<path d="M0 0 C3.61009969 3.10415549 7.01617986 6.40043064 10.42382812 9.72363281 C11.08125 10.30757812 11.73867187 10.89152344 12.41601562 11.49316406 C27.70164393 25.40519904 34.36926701 46.72890802 35.34912109 66.78198242 C36.07583553 90.60067451 28.4791339 111.8965191 12.42382812 129.72363281 C11.73675781 130.50480469 11.0496875 131.28597656 10.34179688 132.09082031 C-4.01817829 147.48982893 -25.6353837 156.89016861 -46.57617188 157.72363281 C-47.36378906 157.77519531 -48.15140625 157.82675781 -48.96289062 157.87988281 C-72.48415899 158.74437047 -93.69840028 150.22462621 -111.32617188 134.97363281 C-127.41015994 119.59819048 -138.11422575 99.29080732 -138.77929688 76.75488281 C-139.15060336 50.69997745 -133.02180112 29.41202959 -114.84570312 10.02832031 C-85.55970596 -19.71133257 -34.03567158 -27.56172413 0 0 Z M-89.57617188 38.72363281 C-98.7959454 50.3232714 -101.87415965 63.07720287 -100.57617188 77.72363281 C-98.4763373 91.08621647 -91.29214045 102.50652855 -80.57617188 110.72363281 C-68.40078852 118.83938344 -55.9278561 120.96813137 -41.57617188 118.72363281 C-28.59938198 115.44546468 -17.57553858 108.30056487 -10.38867188 96.97363281 C-3.04983307 83.98349568 -0.94202776 71.27996007 -4.57617188 56.72363281 C-8.21529044 44.33243409 -17.16472817 33.53854 -28.38085938 27.11816406 C-31.07926018 25.84371161 -33.77019861 24.73701921 -36.57617188 23.72363281 C-37.22972656 23.47871094 -37.88328125 23.23378906 -38.55664062 22.98144531 C-57.11341198 17.20471052 -76.89274209 25.03831865 -89.57617188 38.72363281 Z " fill="#71C273" transform="translate(1846.576171875,814.2763671875)"/>
<path d="M0 0 C12.54 0 25.08 0 38 0 C38.06795245 17.19510515 38.12311802 34.39009411 38.15543652 51.58529663 C38.1708473 59.57091103 38.19182479 67.55643553 38.22631836 75.54199219 C38.2563994 82.50938483 38.27561696 89.47671231 38.28226548 96.44416809 C38.28614639 100.12688271 38.29514313 103.80941105 38.31719017 107.49206543 C38.53018408 144.54856323 38.53018408 144.54856323 30 162 C29.58105469 162.89976562 29.16210938 163.79953125 28.73046875 164.7265625 C18.76594637 184.65560725 0.46610081 198.97455642 -20 207 C-29.81816294 210.03642344 -38.67045623 211 -49 211 C-49 198.46 -49 185.92 -49 173 C-44.05 172.01 -39.1 171.02 -34 170 C-21.91017561 165.70493081 -12.42565398 158.16912025 -6 147 C-2.8213041 139.96805937 -0.89368939 133.15971901 -0.84178162 125.42546082 C-0.82709839 123.76176956 -0.82709839 123.76176956 -0.81211853 122.06446838 C-0.80636307 120.85749802 -0.8006076 119.65052765 -0.79467773 118.40698242 C-0.78477814 117.12853455 -0.77487854 115.85008667 -0.76467896 114.53289795 C-0.73770488 111.0353915 -0.71665487 107.53787167 -0.69667697 104.0403192 C-0.67477102 100.38210485 -0.64740493 96.72393142 -0.62062073 93.06575012 C-0.57075606 86.14211745 -0.5257942 79.21846198 -0.48259836 72.29478484 C-0.4331727 64.41087413 -0.37827437 56.52700448 -0.32291877 48.64313352 C-0.20919432 32.42879222 -0.10305701 16.21441315 0 0 Z " fill="#71C273" transform="translate(1213,810)"/>
<path d="M0 0 C2.1010694 0.52821002 4.20550127 1.04111856 6.31054688 1.55322266 C13.48051636 3.32895094 20.19325061 5.35615487 26.84179688 8.65087891 C27.08007812 10.97900391 27.08007812 10.97900391 26.84179688 13.65087891 C25.25976562 15.13525391 25.25976562 15.13525391 23.02929688 16.40087891 C9.03096037 25.03536684 -3.67889182 37.22185456 -13.15820312 50.65087891 C-15.42300372 51.7832792 -16.69476399 51.79173234 -19.21046448 51.82255554 C-20.48244438 51.84157425 -20.48244438 51.84157425 -21.78012085 51.86097717 C-23.17878891 51.8743235 -23.17878891 51.8743235 -24.60571289 51.88793945 C-26.07676231 51.90760773 -26.07676231 51.90760773 -27.57752991 51.92767334 C-30.83484942 51.96960701 -34.09219341 52.00404411 -37.34960938 52.03759766 C-39.61205692 52.06325143 -41.87450299 52.08903545 -44.13694763 52.11494446 C-48.88920093 52.1679922 -53.64147748 52.2168971 -58.39379883 52.26342773 C-64.47108816 52.32361999 -70.54811503 52.39787347 -76.62519932 52.47580242 C-81.30327423 52.53355247 -85.9814127 52.58178059 -90.65962029 52.62738991 C-92.89904489 52.6507342 -95.13843689 52.67746942 -97.37777901 52.70770836 C-100.52015396 52.74909964 -103.66238814 52.7771417 -106.80493164 52.80200195 C-108.18234528 52.82445732 -108.18234528 52.82445732 -109.58758545 52.84736633 C-116.37435465 52.88036974 -123.1452933 52.59253191 -128.97070312 48.83837891 C-131.24972524 46.5593568 -133.2050511 44.21439094 -135.15820312 41.65087891 C-144.52158478 30.03163302 -156.00782421 21.1880746 -168.15820312 12.65087891 C-167.82820313 11.00087891 -167.49820312 9.35087891 -167.15820312 7.65087891 C-119.16264099 -8.31107376 -119.16264099 -8.31107376 -107.03320312 -2.97412109 C-93.37663677 9.49491775 -78.64437257 27.14141657 -72.15820312 44.65087891 C-68.03503357 43.27648905 -67.10315913 40.50616018 -65.09570312 36.90087891 C-60.69211932 29.29567757 -55.70998372 22.44914495 -50.15820312 15.65087891 C-49.47274414 14.80299805 -49.47274414 14.80299805 -48.7734375 13.93798828 C-32.62630933 -5.96116966 -24.17108821 -6.09951169 0 0 Z " fill="#E8EBA0" transform="translate(479.158203125,769.34912109375)"/>
<path d="M0 0 C12.54 0 25.08 0 38 0 C38 12.54 38 25.08 38 38 C25.46 38 12.92 38 0 38 C0 25.46 0 12.92 0 0 Z " fill="#71C273" transform="translate(1213,761)"/>
<path d="M0 0 C243.87 0 487.74 0 739 0 C739 0.33 739 0.66 739 1 C495.13 1 251.26 1 0 1 C0 0.67 0 0.34 0 0 Z " fill="#939598" transform="translate(793,1056)"/>
<path d="M0 0 C2.7225 -0.0825 5.445 -0.165 8.25 -0.25 C9.10110352 -0.28641602 9.95220703 -0.32283203 10.82910156 -0.36035156 C14.53027389 -0.41470322 16.44449562 -0.37990421 19.5703125 1.7578125 C21 4 21 4 21.1015625 6.0703125 C20.94429687 6.74835938 20.78703125 7.42640625 20.625 8.125 C20.315625 10.043125 20.315625 10.043125 20 12 C20.66 12.66 21.32 13.32 22 14 C21.53846154 20.46153846 21.53846154 20.46153846 19 23 C15.22661511 24.42849571 11.22333371 24.11094483 7.25 24.0625 C4.8575 24.041875 2.465 24.02125 0 24 C0 16.08 0 8.16 0 0 Z M6 5 C6 6.32 6 7.64 6 9 C8.64 9 11.28 9 14 9 C14 7.68 14 6.36 14 5 C11.36 5 8.72 5 6 5 Z M6 14 C6 15.65 6 17.3 6 19 C7.27875 19.061875 8.5575 19.12375 9.875 19.1875 C10.95394531 19.23970703 10.95394531 19.23970703 12.0546875 19.29296875 C12.69664063 19.19628906 13.33859375 19.09960938 14 19 C14.66 18.01 15.32 17.02 16 16 C14.23863645 13.81668311 14.23863645 13.81668311 12.0546875 13.8046875 C9.02734375 13.90234375 9.02734375 13.90234375 6 14 Z " fill="#3A3A3C" transform="translate(1156,1162)"/>
<path d="M0 0 C13.50344476 -0.1250319 13.50344476 -0.1250319 16.171875 0.546875 C19.12193573 1.27808663 21.84140632 0.44218882 24.78125 -0.13671875 C27 0 27 0 29.265625 1.49609375 C31.60747372 4.87700597 31.44417991 7.79918573 31.25 11.75 C31.23195313 12.44738281 31.21390625 13.14476562 31.1953125 13.86328125 C31.14838554 15.57611539 31.07664605 17.28823824 31 19 C29.02 19 27.04 19 25 19 C25 14.71 25 10.42 25 6 C23.35 6.33 21.7 6.66 20 7 C19.67 10.96 19.34 14.92 19 19 C17.02 19 15.04 19 13 19 C12.67 15.04 12.34 11.08 12 7 C10.35 6.67 8.7 6.34 7 6 C6.67 10.29 6.34 14.58 6 19 C4.02 19 2.04 19 0 19 C0 12.73 0 6.46 0 0 Z " fill="#6D6E71" transform="translate(1763,1056)"/>
<path d="M0 0 C1.65 0 3.3 0 5 0 C7.01953125 2.3359375 7.01953125 2.3359375 8.8125 5.375 C9.41707031 6.37273437 10.02164062 7.37046875 10.64453125 8.3984375 C12 11 12 11 12 13 C12.66 13 13.32 13 14 13 C14.226875 12.34 14.45375 11.68 14.6875 11 C15.79614785 8.46594777 16.95403255 6.09258546 18.3125 3.6875 C18.70050781 2.99011719 19.08851562 2.29273438 19.48828125 1.57421875 C19.98714844 1.05472656 20.48601562 0.53523438 21 0 C22.65 0 24.3 0 26 0 C26 7.92 26 15.84 26 24 C24.35 24 22.7 24 21 24 C20.67 20.37 20.34 16.74 20 13 C18.35 15.64 16.7 18.28 15 21 C12.75 20.9375 12.75 20.9375 10 20 C8.32150176 17.7691525 7.24000737 15.52594094 6 13 C5.67 16.63 5.34 20.26 5 24 C3.35 24 1.7 24 0 24 C0 16.08 0 8.16 0 0 Z " fill="#3A3A3C" transform="translate(1613,1162)"/>
<path d="M0 0 C6 0 6 0 8.5546875 2.40625 C9.32039063 3.4271875 10.08609375 4.448125 10.875 5.5 C11.65617187 6.5209375 12.43734375 7.541875 13.2421875 8.59375 C13.82226562 9.3878125 14.40234375 10.181875 15 11 C15.33 7.37 15.66 3.74 16 0 C17.98 0 19.96 0 22 0 C22 7.92 22 15.84 22 24 C17 24 17 24 14.32421875 21.375 C13.42996976 20.26215682 12.55142682 19.13654373 11.6875 18 C11.23310547 17.42765625 10.77871094 16.8553125 10.31054688 16.265625 C9.19337205 14.85445681 8.09482029 13.42858104 7 12 C6.67 15.96 6.34 19.92 6 24 C4.02 24 2.04 24 0 24 C0 16.08 0 8.16 0 0 Z " fill="#3A3A3C" transform="translate(1064,1162)"/>
<path d="M0 0 C5 0 5 0 7.421875 2.1171875 C8.19015625 3.02726562 8.9584375 3.93734375 9.75 4.875 C10.52859375 5.77992187 11.3071875 6.68484375 12.109375 7.6171875 C14 10 14 10 15 12 C15.33 8.04 15.66 4.08 16 0 C17.98 0 19.96 0 22 0 C22 7.92 22 15.84 22 24 C16 24 16 24 13.4453125 21.59375 C12.67960937 20.5728125 11.91390625 19.551875 11.125 18.5 C10.34382813 17.4790625 9.56265625 16.458125 8.7578125 15.40625 C8.17773438 14.6121875 7.59765625 13.818125 7 13 C6.67 16.63 6.34 20.26 6 24 C4.02 24 2.04 24 0 24 C0 16.08 0 8.16 0 0 Z " fill="#3A3A3C" transform="translate(1452,1204)"/>
<path d="M0 0 C6 0 6 0 8.5546875 2.40625 C9.32039063 3.4271875 10.08609375 4.448125 10.875 5.5 C11.65617187 6.5209375 12.43734375 7.541875 13.2421875 8.59375 C13.82226562 9.3878125 14.40234375 10.181875 15 11 C15.33 7.37 15.66 3.74 16 0 C17.98 0 19.96 0 22 0 C22 7.92 22 15.84 22 24 C17 24 17 24 14.32421875 21.375 C13.42996976 20.26215682 12.55142682 19.13654373 11.6875 18 C11.23310547 17.42765625 10.77871094 16.8553125 10.31054688 16.265625 C9.19337205 14.85445681 8.09482029 13.42858104 7 12 C6.67 15.96 6.34 19.92 6 24 C4.02 24 2.04 24 0 24 C0 16.08 0 8.16 0 0 Z " fill="#3A3A3C" transform="translate(1566,1162)"/>
<path d="M0 0 C5 0 5 0 7.421875 2.1171875 C8.19015625 3.02726562 8.9584375 3.93734375 9.75 4.875 C10.52859375 5.77992187 11.3071875 6.68484375 12.109375 7.6171875 C14 10 14 10 15 12 C15.33 8.04 15.66 4.08 16 0 C17.98 0 19.96 0 22 0 C22 7.92 22 15.84 22 24 C16 24 16 24 13.4453125 21.59375 C12.67960937 20.5728125 11.91390625 19.551875 11.125 18.5 C10.34382813 17.4790625 9.56265625 16.458125 8.7578125 15.40625 C8.17773438 14.6121875 7.59765625 13.818125 7 13 C6.67 16.63 6.34 20.26 6 24 C4.02 24 2.04 24 0 24 C0 16.08 0 8.16 0 0 Z " fill="#3A3A3C" transform="translate(1354,1162)"/>
<path d="M0 0 C6 0 6 0 8.5546875 2.40625 C9.32039063 3.4271875 10.08609375 4.448125 10.875 5.5 C11.65617187 6.5209375 12.43734375 7.541875 13.2421875 8.59375 C13.82226562 9.3878125 14.40234375 10.181875 15 11 C15.33 7.37 15.66 3.74 16 0 C17.98 0 19.96 0 22 0 C22 7.92 22 15.84 22 24 C17 24 17 24 14.578125 21.8828125 C13.80984375 20.97273438 13.0415625 20.06265625 12.25 19.125 C11.47140625 18.22007813 10.6928125 17.31515625 9.890625 16.3828125 C8 14 8 14 7 12 C6.67 15.96 6.34 19.92 6 24 C4.02 24 2.04 24 0 24 C0 16.08 0 8.16 0 0 Z " fill="#3A3A3C" transform="translate(1706,1162)"/>
<path d="M0 0 C2.92539357 2.32310666 3.9438769 4.39225924 4.4609375 8.08984375 C4.52630442 12.33215711 4.5519368 14.95560834 2.375 18.6875 C-1.79343291 22.3927737 -5.15039632 23.14406852 -10.625 23 C-14.21369577 22.50157003 -16.21889601 21.0906417 -18.875 18.6875 C-21.26867064 15.290032 -22.12931351 12.71713561 -21.875 8.625 C-21.13061441 4.39332973 -19.29067666 2.32688651 -15.875 -0.3125 C-10.66531289 -3.41015179 -5.30145955 -2.42023153 0 0 Z M-13.8125 4.75 C-15.4890629 7.80726176 -15.24028977 10.2781288 -14.875 13.6875 C-13.34683949 16.10038502 -12.14819502 16.57965986 -9.5 17.625 C-6.72147339 17.91279278 -6.72147339 17.91279278 -4.0625 16.125 C-1.62617701 13.84867612 -1.62617701 13.84867612 -1.375 10.6875 C-1.93390985 7.33404092 -2.26178586 5.87922799 -4.875 3.6875 C-8.31985259 3.25689343 -10.72006242 3.05414713 -13.8125 4.75 Z " fill="#3A3A3C" transform="translate(1423.875,1205.3125)"/>
<path d="M0 0 C2.95365832 1.83484835 5.41785273 3.83570547 7 7 C7.57322775 11.69858808 7.41740893 15.14972255 5.3125 19.4375 C2.37631484 22.69111058 0.41125071 23.73044962 -3.921875 24.21484375 C-9.44448772 24.47436502 -12.53071372 23.1165311 -16.75 19.5 C-19.60668997 16.07197204 -19.35912029 12.23761939 -19 8 C-17.08674902 4.02043796 -15.54949286 2.32758228 -11.75 0.0625 C-7.41433178 -1.16593933 -4.28255668 -1.44774689 0 0 Z M-11.4375 7.125 C-13.23784957 9.91245748 -13.23784957 9.91245748 -13.0625 13.125 C-12.21555177 16.13085299 -12.21555177 16.13085299 -9.75 17.9375 C-6.53668156 19.1790094 -5.19181959 19.25992878 -2 18 C0.02896212 16.46186579 0.02896212 16.46186579 1 14 C1.00668717 10.37942732 1.00668717 10.37942732 0 7 C-4.31644743 4.12236838 -7.38985947 3.59628774 -11.4375 7.125 Z " fill="#3A3A3C" transform="translate(1218,1204)"/>
<path d="M0 0 C2.95365832 1.83484835 5.41785273 3.83570547 7 7 C7.57322775 11.69858808 7.41740893 15.14972255 5.3125 19.4375 C2.37631484 22.69111058 0.41125071 23.73044962 -3.921875 24.21484375 C-9.44448772 24.47436502 -12.53071372 23.1165311 -16.75 19.5 C-19.60668997 16.07197204 -19.35912029 12.23761939 -19 8 C-17.08674902 4.02043796 -15.54949286 2.32758228 -11.75 0.0625 C-7.41433178 -1.16593933 -4.28255668 -1.44774689 0 0 Z M-11.4375 7.125 C-13.23784957 9.91245748 -13.23784957 9.91245748 -13.0625 13.125 C-12.21555177 16.13085299 -12.21555177 16.13085299 -9.75 17.9375 C-6.53668156 19.1790094 -5.19181959 19.25992878 -2 18 C0.02896212 16.46186579 0.02896212 16.46186579 1 14 C1.00668717 10.37942732 1.00668717 10.37942732 0 7 C-4.31644743 4.12236838 -7.38985947 3.59628774 -11.4375 7.125 Z " fill="#3A3A3C" transform="translate(1536,1162)"/>
<path d="M0 0 C3.5578125 -0.12375 3.5578125 -0.12375 7.1875 -0.25 C7.92508545 -0.28641602 8.6626709 -0.32283203 9.42260742 -0.36035156 C12.92723504 -0.4190381 14.92224925 -0.04560282 17.95703125 1.734375 C20.23658138 4.26236559 20.63722457 5.16086883 20.5 8.5 C20.30705393 12.15994585 19.73125232 14.38254986 17 17 C17.66 17.78375 18.32 18.5675 19 19.375 C21 22 21 22 21 24 C17.75 24.375 17.75 24.375 14 24 C11.8125 21.0625 11.8125 21.0625 10 18 C7.87880872 17.04768403 7.87880872 17.04768403 6 17 C6 19.31 6 21.62 6 24 C4.02 24 2.04 24 0 24 C0 16.08 0 8.16 0 0 Z M6 5 C6 7.31 6 9.62 6 12 C10.14093698 12.20970559 10.14093698 12.20970559 14 11 C14 9.35 14 7.7 14 6 C11.29120665 4.64560332 8.99066732 4.93498549 6 5 Z " fill="#3A3A3C" transform="translate(1475,1162)"/>
<path d="M0 0 C6.27 0 12.54 0 19 0 C19 1.65 19 3.3 19 5 C14.71 5 10.42 5 6 5 C6 6.32 6 7.64 6 9 C9.63 9 13.26 9 17 9 C17 10.65 17 12.3 17 14 C13.37 14 9.74 14 6 14 C6 15.65 6 17.3 6 19 C10.29 19 14.58 19 19 19 C19 20.65 19 22.3 19 24 C12.73 24 6.46 24 0 24 C0 16.08 0 8.16 0 0 Z " fill="#6D6E71" transform="translate(1619,1051)"/>
<path d="M0 0 C2.31 0 4.62 0 7 0 C7.33 5.61 7.66 11.22 8 17 C9.65 17.33 11.3 17.66 13 18 C15.93447357 15.06552643 15.46158423 11.81740544 15.625 7.875 C15.68300781 6.74384766 15.68300781 6.74384766 15.7421875 5.58984375 C15.83651031 3.72696816 15.91934662 1.86351745 16 0 C17.98 0 19.96 0 22 0 C22.10829314 2.89684158 22.18743954 5.78961019 22.25 8.6875 C22.30027344 9.91243164 22.30027344 9.91243164 22.3515625 11.16210938 C22.41862016 15.30292007 22.35846774 17.4274885 20.109375 21.01953125 C16.56413941 24.34811356 13.95179275 24.28640342 9.2578125 24.2109375 C6.08465058 23.91448293 4.35885011 23.14440919 2 21 C0.01544433 16.35323551 -0.25044674 12.10427071 -0.125 7.125 C-0.11146484 6.09246094 -0.11146484 6.09246094 -0.09765625 5.0390625 C-0.07432513 3.35922162 -0.03846326 1.67956254 0 0 Z " fill="#3A3A3C" transform="translate(1287,1204)"/>
<path d="M0 0 C5.94 0 11.88 0 18 0 C18 1.65 18 3.3 18 5 C14.04 5 10.08 5 6 5 C6 6.32 6 7.64 6 9 C9.63 9 13.26 9 17 9 C17 10.65 17 12.3 17 14 C13.37 14 9.74 14 6 14 C6 15.65 6 17.3 6 19 C10.29 19 14.58 19 19 19 C19 20.65 19 22.3 19 24 C12.73 24 6.46 24 0 24 C0 16.08 0 8.16 0 0 Z " fill="#3A3A3C" transform="translate(1664,1162)"/>
<path d="M0 0 C13.24210988 -0.49503214 13.24210988 -0.49503214 16.89453125 1.890625 C19.79097983 4.79244733 19.96225728 5.61628237 20.375 9.8125 C20.31327317 13.2013027 19.98866791 14.01699814 18 17 C13.97020535 19.68652977 11.76065969 19.40344574 7 19 C6.67 20.98 6.34 22.96 6 25 C4.02 25 2.04 25 0 25 C0 16.75 0 8.5 0 0 Z M8 5 C5.7508092 6.82703227 5.7508092 6.82703227 5.75 9.5 C5.7508092 12.17296773 5.7508092 12.17296773 8 14 C11.30683466 13.71016731 11.30683466 13.71016731 14 12 C14.2500773 9.54190002 14.2500773 9.54190002 14 7 C13.34 6.34 12.68 5.68 12 5 C10.68 5 9.36 5 8 5 Z " fill="#6D6E71" transform="translate(1798,1056)"/>
<path d="M0 0 C1.4540625 0.0309375 1.4540625 0.0309375 2.9375 0.0625 C4.231674 2.62376064 5.52290784 5.18643358 6.8125 7.75 C7.17730469 8.47123047 7.54210938 9.19246094 7.91796875 9.93554688 C12.9375 19.92897727 12.9375 19.92897727 12.9375 24.0625 C10.9575 24.0625 8.9775 24.0625 6.9375 24.0625 C6.2775 22.7425 5.6175 21.4225 4.9375 20.0625 C1.6375 20.0625 -1.6625 20.0625 -5.0625 20.0625 C-5.7225 21.3825 -6.3825 22.7025 -7.0625 24.0625 C-9.0425 24.0625 -11.0225 24.0625 -13.0625 24.0625 C-12.3937154 18.92121838 -10.18373277 14.48514561 -8.0625 9.8125 C-7.50949219 8.57113281 -7.50949219 8.57113281 -6.9453125 7.3046875 C-3.69809077 0.07547124 -3.69809077 0.07547124 0 0 Z M-1.0625 8.0625 C-1.7225 10.0425 -2.3825 12.0225 -3.0625 14.0625 C-1.0825 14.0625 0.8975 14.0625 2.9375 14.0625 C2.2775 12.0825 1.6175 10.1025 0.9375 8.0625 C0.2775 8.0625 -0.3825 8.0625 -1.0625 8.0625 Z " fill="#3A3A3C" transform="translate(1121.0625,1161.9375)"/>
<path d="M0 0 C2.31 0 4.62 0 7 0 C8.67275302 3.62222211 10.33716251 7.2482166 12 10.875 C12.47695312 11.90753906 12.95390625 12.94007812 13.4453125 14.00390625 C13.89648438 14.99003906 14.34765625 15.97617188 14.8125 16.9921875 C15.44091797 18.35899658 15.44091797 18.35899658 16.08203125 19.75341797 C17 22 17 22 17 24 C15.02 24 13.04 24 11 24 C10.34 22.35 9.68 20.7 9 19 C5.37 19 1.74 19 -2 19 C-2.33 20.65 -2.66 22.3 -3 24 C-5.31 24 -7.62 24 -10 24 C-8.36368504 18.6776703 -6.16119959 13.69018424 -3.875 8.625 C-3.50246094 7.79355469 -3.12992188 6.96210937 -2.74609375 6.10546875 C-1.83326454 4.06915745 -0.91784402 2.03405461 0 0 Z M3 7 C2.34 9.31 1.68 11.62 1 14 C2.65 14 4.3 14 6 14 C5.42547254 10.06924356 5.42547254 10.06924356 3 7 Z " fill="#3A3A3C" transform="translate(1798,1162)"/>
<path d="M0 0 C1.4540625 0.0309375 1.4540625 0.0309375 2.9375 0.0625 C12.9375 19.7625 12.9375 19.7625 12.9375 24.0625 C10.9575 24.0625 8.9775 24.0625 6.9375 24.0625 C6.2775 22.7425 5.6175 21.4225 4.9375 20.0625 C1.6375 20.0625 -1.6625 20.0625 -5.0625 20.0625 C-5.7225 21.3825 -6.3825 22.7025 -7.0625 24.0625 C-9.0425 24.0625 -11.0225 24.0625 -13.0625 24.0625 C-12.3937154 18.92121838 -10.18373277 14.48514561 -8.0625 9.8125 C-7.50949219 8.57113281 -7.50949219 8.57113281 -6.9453125 7.3046875 C-3.69809077 0.07547124 -3.69809077 0.07547124 0 0 Z M-1.0625 8.0625 C-1.7225 10.0425 -2.3825 12.0225 -3.0625 14.0625 C-1.0825 14.0625 0.8975 14.0625 2.9375 14.0625 C2.2775 12.0825 1.6175 10.1025 0.9375 8.0625 C0.2775 8.0625 -0.3825 8.0625 -1.0625 8.0625 Z " fill="#3A3A3C" transform="translate(999.0625,1161.9375)"/>
<path d="M0 0 C5.94 0 11.88 0 18 0 C18 1.65 18 3.3 18 5 C14.04 5 10.08 5 6 5 C6 6.32 6 7.64 6 9 C9.3 9 12.6 9 16 9 C16 10.65 16 12.3 16 14 C12.7 14 9.4 14 6 14 C6 15.65 6 17.3 6 19 C9.96 19 13.92 19 18 19 C18 20.65 18 22.3 18 24 C12.06 24 6.12 24 0 24 C0 16.08 0 8.16 0 0 Z " fill="#3A3A3C" transform="translate(1312,1162)"/>
<path d="M0 0 C5.94 0 11.88 0 18 0 C18 1.65 18 3.3 18 5 C14.04 5 10.08 5 6 5 C6 6.32 6 7.64 6 9 C9.3 9 12.6 9 16 9 C16 10.65 16 12.3 16 14 C12.7 14 9.4 14 6 14 C6 15.65 6 17.3 6 19 C9.96 19 13.92 19 18 19 C18 20.65 18 22.3 18 24 C12.06 24 6.12 24 0 24 C0 16.08 0 8.16 0 0 Z " fill="#3A3A3C" transform="translate(1241,1162)"/>
<path d="M0 0 C1.98 0 3.96 0 6 0 C6.04898438 1.13179687 6.09796875 2.26359375 6.1484375 3.4296875 C6.22346514 4.91148339 6.29901297 6.393253 6.375 7.875 C6.4059375 8.62136719 6.436875 9.36773438 6.46875 10.13671875 C6.55643831 14.53473188 6.55643831 14.53473188 9 18 C11.60280568 17.67958603 11.60280568 17.67958603 14 17 C15.15570704 13.53287889 15.32835293 10.4585044 15.5625 6.8125 C15.64628906 5.54019531 15.73007812 4.26789063 15.81640625 2.95703125 C15.87699219 1.98121094 15.93757812 1.00539063 16 0 C17.98 0 19.96 0 22 0 C22.5737662 16.51171619 22.5737662 16.51171619 19 22 C14.85802719 24.58762907 10.75034607 24.71128177 6 24 C3.12970131 22.20606332 1.50868362 21.01736724 0 18 C-0.08308638 16.62451844 -0.10736016 15.24514204 -0.09765625 13.8671875 C-0.09443359 13.06152344 -0.09121094 12.25585938 -0.08789062 11.42578125 C-0.07951172 10.58402344 -0.07113281 9.74226563 -0.0625 8.875 C-0.05798828 8.02550781 -0.05347656 7.17601562 -0.04882812 6.30078125 C-0.03702874 4.20049091 -0.01909306 2.1002367 0 0 Z " fill="#3A3A3C" transform="translate(863,1162)"/>
<path d="M0 0 C0.77601562 0.09023437 1.55203125 0.18046875 2.3515625 0.2734375 C4.375 0.625 4.375 0.625 6.375 1.625 C5.715 3.275 5.055 4.925 4.375 6.625 C2.35677083 6.29947917 0.33854167 5.97395833 -1.6796875 5.6484375 C-2.32164063 5.64070313 -2.96359375 5.63296875 -3.625 5.625 C-4.285 6.285 -4.945 6.945 -5.625 7.625 C-4.85414062 7.87894531 -4.08328125 8.13289063 -3.2890625 8.39453125 C-2.28617188 8.73871094 -1.28328125 9.08289062 -0.25 9.4375 C1.24660156 9.94216797 1.24660156 9.94216797 2.7734375 10.45703125 C5.375 11.625 5.375 11.625 7.375 14.625 C7.30491794 18.54959547 7.25217745 20.77523435 4.375 23.5625 C-0.7389073 25.3736755 -5.54208825 25.30513445 -10.6875 23.625 C-11.326875 23.295 -11.96625 22.965 -12.625 22.625 C-12.295 20.975 -11.965 19.325 -11.625 17.625 C-7.995 17.955 -4.365 18.285 -0.625 18.625 C-0.295 17.965 0.035 17.305 0.375 16.625 C-0.31207031 16.45484375 -0.99914063 16.2846875 -1.70703125 16.109375 C-2.60808594 15.86703125 -3.50914063 15.6246875 -4.4375 15.375 C-5.77748047 15.02695313 -5.77748047 15.02695313 -7.14453125 14.671875 C-10.05064199 13.44535897 -11.09262052 12.35663299 -12.625 9.625 C-12.49490396 6.43764696 -12.19569691 4.41310526 -10.3125 1.8125 C-7.00681535 -0.51372253 -3.90928575 -0.48375777 0 0 Z " fill="#3A3A3C" transform="translate(1170.625,1203.375)"/>
<path d="M0 0 C0.77601563 0.07863281 1.55203125 0.15726563 2.3515625 0.23828125 C4.375 0.6875 4.375 0.6875 6.375 2.6875 C5.715 4.0075 5.055 5.3275 4.375 6.6875 C2.35677083 6.36197917 0.33854167 6.03645833 -1.6796875 5.7109375 C-2.32164062 5.70320313 -2.96359375 5.69546875 -3.625 5.6875 C-4.285 6.3475 -4.945 7.0075 -5.625 7.6875 C-4.59439453 8.03361328 -4.59439453 8.03361328 -3.54296875 8.38671875 C3.77212444 11.03438481 3.77212444 11.03438481 6.625 14.125 C7.375 16.6875 7.375 16.6875 6.8125 19.3125 C5.21936106 21.9446426 3.98202328 23.07930111 1.375 24.6875 C-1.0625 25.05078125 -1.0625 25.05078125 -3.625 25 C-4.470625 24.99613281 -5.31625 24.99226563 -6.1875 24.98828125 C-8.74037729 24.67326274 -10.41513935 23.97146996 -12.625 22.6875 C-12.295 21.0375 -11.965 19.3875 -11.625 17.6875 C-7.995 18.0175 -4.365 18.3475 -0.625 18.6875 C-0.625 18.0275 -0.625 17.3675 -0.625 16.6875 C-1.23988281 16.50574219 -1.85476563 16.32398438 -2.48828125 16.13671875 C-3.29652344 15.88535156 -4.10476563 15.63398437 -4.9375 15.375 C-5.73800781 15.13136719 -6.53851562 14.88773438 -7.36328125 14.63671875 C-9.77323672 13.62528666 -11.02168192 12.73731172 -12.625 10.6875 C-13.0625 7.75 -13.0625 7.75 -12.625 4.6875 C-9.09007753 0.01635245 -5.60708035 -0.62821803 0 0 Z " fill="#3A3A3C" transform="translate(833.625,1161.3125)"/>
<path d="M0 0 C1.17755859 0.13535156 1.17755859 0.13535156 2.37890625 0.2734375 C4.4375 0.625 4.4375 0.625 6.4375 1.625 C6.1075 3.275 5.7775 4.925 5.4375 6.625 C1.8075 6.295 -1.8225 5.965 -5.5625 5.625 C-5.5625 6.615 -5.5625 7.605 -5.5625 8.625 C-4.95921875 8.73457031 -4.3559375 8.84414062 -3.734375 8.95703125 C5.13006155 10.71562108 5.13006155 10.71562108 7.4375 13.625 C8 17.0625 8 17.0625 7.4375 20.625 C5.25067574 23.46787154 3.61095362 24.45571489 0.0546875 24.96875 C-4.95205257 25.14809591 -8.51136892 24.86590487 -12.5625 21.625 C-11.9025 20.305 -11.2425 18.985 -10.5625 17.625 C-6.9325 17.955 -3.3025 18.285 0.4375 18.625 C0.4375 17.965 0.4375 17.305 0.4375 16.625 C-0.34496094 16.35945313 -1.12742187 16.09390625 -1.93359375 15.8203125 C-3.45146484 15.29050781 -3.45146484 15.29050781 -5 14.75 C-6.00933594 14.40195313 -7.01867188 14.05390625 -8.05859375 13.6953125 C-10.5625 12.625 -10.5625 12.625 -11.5625 10.625 C-11.9625134 6.94487667 -12.07279897 5.2760711 -9.75 2.3125 C-6.39072718 -0.27893903 -4.06862871 -0.49601075 0 0 Z " fill="#3A3A3C" transform="translate(1508.5625,1203.375)"/>
<path d="M0 0 C1.17755859 0.13535156 1.17755859 0.13535156 2.37890625 0.2734375 C4.4375 0.625 4.4375 0.625 6.4375 1.625 C6.1075 3.275 5.7775 4.925 5.4375 6.625 C1.8075 6.295 -1.8225 5.965 -5.5625 5.625 C-5.5625 6.615 -5.5625 7.605 -5.5625 8.625 C-4.95921875 8.73457031 -4.3559375 8.84414062 -3.734375 8.95703125 C5.13006155 10.71562108 5.13006155 10.71562108 7.4375 13.625 C8 17.0625 8 17.0625 7.4375 20.625 C5.25067574 23.46787154 3.61095362 24.45571489 0.0546875 24.96875 C-4.95205257 25.14809591 -8.51136892 24.86590487 -12.5625 21.625 C-11.9025 20.305 -11.2425 18.985 -10.5625 17.625 C-6.9325 17.955 -3.3025 18.285 0.4375 18.625 C0.4375 17.965 0.4375 17.305 0.4375 16.625 C-0.34496094 16.35945313 -1.12742187 16.09390625 -1.93359375 15.8203125 C-3.45146484 15.29050781 -3.45146484 15.29050781 -5 14.75 C-6.00933594 14.40195313 -7.01867187 14.05390625 -8.05859375 13.6953125 C-10.5625 12.625 -10.5625 12.625 -11.5625 10.625 C-11.9625134 6.94487667 -12.07279897 5.2760711 -9.75 2.3125 C-6.39072718 -0.27893903 -4.06862871 -0.49601075 0 0 Z " fill="#3A3A3C" transform="translate(919.5625,1161.375)"/>
<path d="M0 0 C3.1875 1.5 3.1875 1.5 5 3 C4.1875 4.9375 4.1875 4.9375 3 7 C2.01 7.33 1.02 7.66 0 8 C-0.66 7.34 -1.32 6.68 -2 6 C-4.95769177 5.49989476 -4.95769177 5.49989476 -8 6 C-10.09764165 7.51894806 -10.09764165 7.51894806 -11 10 C-11.00674926 13.12680099 -11.00674926 13.12680099 -10 16 C-7.18542374 18.34987222 -7.18542374 18.34987222 -4.0625 17.625 C-3.051875 17.41875 -2.04125 17.2125 -1 17 C0.32 17 1.64 17 3 17 C3.66 17.99 4.32 18.98 5 20 C1.88219153 23.32566237 -0.48814768 24.33893747 -4.9375 24.5 C-9.63665312 24.30391015 -12.43762046 23.20614158 -16 20 C-18.34815877 17.01143429 -18.41516536 13.78104862 -18.32421875 10.03125 C-17.79002404 6.68448796 -16.13123774 4.55748529 -14 2 C-9.55299615 -0.96466923 -5.21871437 -0.52568072 0 0 Z " fill="#6D6E71" transform="translate(1658,1051)"/>
<path d="M0 0 C3.125 1.5 3.125 1.5 5 3 C4.34 4.32 3.68 5.64 3 7 C0 7 0 7 -3.5 6.375 C-7.10936483 5.61055449 -7.10936483 5.61055449 -10 8 C-10.92958326 10.71724336 -11.12361086 12.44375113 -10.5 15.25 C-8.99368092 17.34479513 -8.99368092 17.34479513 -5.625 17.875 C-2.18729234 17.99354164 -0.77703351 17.88838279 2 16 C2.99 16.99 3.98 17.98 5 19 C4 22 4 22 2.2421875 23.1640625 C-1.78970101 24.66724045 -5.76866198 24.54059681 -10 24 C-13.48791684 22.31832581 -15.32173907 21.03213619 -17.4375 17.8125 C-18.25847867 13.70760665 -18.15538458 10.03653348 -17 6 C-11.93962436 -0.22815464 -7.68791939 -0.72413683 0 0 Z " fill="#6D6E71" transform="translate(1735,1051)"/>
<path d="M0 0 C2.31 0 4.62 0 7 0 C7.83764268 1.95649397 8.66999059 3.91525556 9.5 5.875 C9.9640625 6.96554687 10.428125 8.05609375 10.90625 9.1796875 C12 12 12 12 12 14 C12.66 14 13.32 14 14 14 C14.29003906 13.11248047 14.29003906 13.11248047 14.5859375 12.20703125 C15.94414719 8.0853355 17.32050585 4.0049476 19 0 C21.31 0 23.62 0 26 0 C22.95613443 8.14719762 19.70597097 16.13072547 16 24 C14.02 24 12.04 24 10 24 C0 4.76595745 0 4.76595745 0 0 Z " fill="#3A3A3C" transform="translate(1397,1162)"/>
<path d="M0 0 C0.95648437 -0.02578125 1.91296875 -0.0515625 2.8984375 -0.078125 C6.00392147 0.29560086 7.33036066 1.18373709 9.625 3.25 C8.965 4.57 8.305 5.89 7.625 7.25 C4.625 7.25 4.625 7.25 1.125 6.5625 C-2.22831695 5.93564624 -2.22831695 5.93564624 -4.3125 7.3125 C-5.85055213 10.11718329 -5.76810741 12.10514075 -5.375 15.25 C-4.45833333 17.33333333 -4.45833333 17.33333333 -2.375 18.25 C1.14245287 17.99751373 1.14245287 17.99751373 4.625 17.25 C5.615 17.25 6.605 17.25 7.625 17.25 C8.285 18.57 8.945 19.89 9.625 21.25 C5.61944892 24.78541598 2.50994583 24.80438372 -2.671875 24.6796875 C-6.88128945 24.01056093 -8.54679955 22.37590576 -11.375 19.25 C-13.23733425 15.52533151 -12.94630829 11.30504687 -12.375 7.25 C-9.42888128 1.74251687 -6.01707878 0.09678947 0 0 Z " fill="#6D6E71" transform="translate(1676.375,1050.75)"/>
<path d="M0 0 C1.98 0 3.96 0 6 0 C7.32 3.3 8.64 6.6 10 10 C11.65 6.7 13.3 3.4 15 0 C16.98 0 18.96 0 21 0 C13.07906106 22.42905048 13.07906106 22.42905048 6.9375 25.5625 C4.17136586 25.97447743 2.5831211 25.99350811 0 25 C0.33 23.35 0.66 21.7 1 20 C2.98 20 4.96 20 7 20 C6.4946875 18.80761719 5.989375 17.61523438 5.46875 16.38671875 C4.81222146 14.82042923 4.15598671 13.25401653 3.5 11.6875 C2.99919922 10.50897461 2.99919922 10.50897461 2.48828125 9.30664062 C2.17246094 8.54931641 1.85664062 7.79199219 1.53125 7.01171875 C1.23798828 6.31522217 0.94472656 5.61872559 0.64257812 4.90112305 C0 3 0 3 0 0 Z " fill="#6D6E71" transform="translate(1861,1056)"/>
<path d="M0 0 C2.42018075 1.9361446 3.38018129 2.76292079 4.1875 5.75 C4.3373919 10.0263277 3.89354039 12.86744952 1.1875 16.25 C-2.90917318 18.29833659 -6.32017777 18.68590046 -10.8125 17.75 C-14.19132179 15.3566679 -15.48323608 13.71721278 -16.8125 9.8125 C-16.8125 5.97476157 -15.91550954 3.9407731 -13.8125 0.75 C-9.74808467 -2.44346919 -4.53559313 -2.01581917 0 0 Z M-7.8125 3.75 C-9.44000037 6.07323453 -9.44000037 6.07323453 -10.8125 8.75 C-10.4825 9.74 -10.1525 10.73 -9.8125 11.75 C-6.8425 12.245 -6.8425 12.245 -3.8125 12.75 C-1.47858797 9.96885944 -1.47858797 9.96885944 -2.1875 7.0625 C-2.39375 6.299375 -2.6 5.53625 -2.8125 4.75 C-4.4625 4.42 -6.1125 4.09 -7.8125 3.75 Z " fill="#6D6E71" transform="translate(1756.8125,1057.25)"/>
<path d="M0 0 C2.66666667 0 5.33333333 0 8 0 C8.969375 -0.061875 9.93875 -0.12375 10.9375 -0.1875 C14.38742852 0.02372011 15.5851877 0.5851877 18 3 C19.14077657 6.42232972 19.09815117 9.08673217 19.0625 12.6875 C19.05347656 13.86699219 19.04445313 15.04648438 19.03515625 16.26171875 C19.02355469 17.16535156 19.01195312 18.06898437 19 19 C17.02 19 15.04 19 13 19 C12.67 14.71 12.34 10.42 12 6 C10.35 6.33 8.7 6.66 7 7 C6.67 10.96 6.34 14.92 6 19 C4.02 19 2.04 19 0 19 C0 12.73 0 6.46 0 0 Z " fill="#6D6E71" transform="translate(1841,1056)"/>
<path d="M0 0 C2.66666667 0 5.33333333 0 8 0 C8.969375 -0.061875 9.93875 -0.12375 10.9375 -0.1875 C14.38742852 0.02372011 15.5851877 0.5851877 18 3 C19.14077657 6.42232972 19.09815117 9.08673217 19.0625 12.6875 C19.05347656 13.86699219 19.04445313 15.04648438 19.03515625 16.26171875 C19.02355469 17.16535156 19.01195312 18.06898437 19 19 C17.02 19 15.04 19 13 19 C12.67 14.71 12.34 10.42 12 6 C10.35 6.33 8.7 6.66 7 7 C6.67 10.96 6.34 14.92 6 19 C4.02 19 2.04 19 0 19 C0 12.73 0 6.46 0 0 Z " fill="#6D6E71" transform="translate(1587,1056)"/>
<path d="M0 0 C3 1.625 3 1.625 5 5 C5.40952868 9.69628341 5.28626277 14.29892925 5 19 C2.75106046 19.10823773 0.50062425 19.18569645 -1.75 19.25 C-3.62945313 19.31960938 -3.62945313 19.31960938 -5.546875 19.390625 C-9 19 -9 19 -11.4609375 17.1484375 C-13 15 -13 15 -12.875 12.375 C-12 10 -12 10 -10 8 C-7.8359375 7.8046875 -7.8359375 7.8046875 -5.375 7.875 C-4.14910156 7.90207031 -4.14910156 7.90207031 -2.8984375 7.9296875 C-1.95871094 7.96449219 -1.95871094 7.96449219 -1 8 C-1.33 7.34 -1.66 6.68 -2 6 C-4.64 6.33 -7.28 6.66 -10 7 C-10.66 5.35 -11.32 3.7 -12 2 C-8.28209924 -0.47860051 -4.31243626 -0.76001352 0 0 Z M-7 12 C-6.67 12.99 -6.34 13.98 -6 15 C-4.35 14.67 -2.7 14.34 -1 14 C-1 13.01 -1 12.02 -1 11 C-4.7763932 10.7018576 -4.7763932 10.7018576 -7 12 Z " fill="#6D6E71" transform="translate(1832,1056)"/>
<path d="M0 0 C3 1.625 3 1.625 5 5 C5.40952868 9.69628341 5.28626277 14.29892925 5 19 C2.75106046 19.10823773 0.50062425 19.18569645 -1.75 19.25 C-3.62945313 19.31960938 -3.62945313 19.31960938 -5.546875 19.390625 C-9 19 -9 19 -11.4609375 17.1484375 C-13 15 -13 15 -12.875 12.375 C-12 10 -12 10 -10 8 C-7.8359375 7.8046875 -7.8359375 7.8046875 -5.375 7.875 C-4.14910156 7.90207031 -4.14910156 7.90207031 -2.8984375 7.9296875 C-1.95871094 7.96449219 -1.95871094 7.96449219 -1 8 C-1.33 7.34 -1.66 6.68 -2 6 C-4.64 6.33 -7.28 6.66 -10 7 C-10.66 5.35 -11.32 3.7 -12 2 C-8.28209924 -0.47860051 -4.31243626 -0.76001352 0 0 Z M-7 12 C-6.67 12.99 -6.34 13.98 -6 15 C-4.35 14.67 -2.7 14.34 -1 14 C-1 13.01 -1 12.02 -1 11 C-4.7763932 10.7018576 -4.7763932 10.7018576 -7 12 Z " fill="#6D6E71" transform="translate(1578,1056)"/>
<path d="M0 0 C6.93 0 13.86 0 21 0 C21 1.65 21 3.3 21 5 C18.36 5 15.72 5 13 5 C13 11.27 13 17.54 13 24 C11.02 24 9.04 24 7 24 C7 17.73 7 11.46 7 5 C4.69 5 2.38 5 0 5 C0 3.35 0 1.7 0 0 Z " fill="#3A3A3C" transform="translate(1750,1162)"/>
<path d="M0 0 C6.93 0 13.86 0 21 0 C21 1.65 21 3.3 21 5 C18.36 5 15.72 5 13 5 C13 11.27 13 17.54 13 24 C11.02 24 9.04 24 7 24 C7 17.73 7 11.46 7 5 C4.69 5 2.38 5 0 5 C0 3.35 0 1.7 0 0 Z " fill="#3A3A3C" transform="translate(947,1162)"/>
<path d="M0 0 C6.6 0 13.2 0 20 0 C20 1.65 20 3.3 20 5 C17.69 5 15.38 5 13 5 C13 11.27 13 17.54 13 24 C11.02 24 9.04 24 7 24 C7 17.73 7 11.46 7 5 C4.69 5 2.38 5 0 5 C0 3.35 0 1.7 0 0 Z " fill="#3A3A3C" transform="translate(1331,1204)"/>
<path d="M0 0 C1.98 0 3.96 0 6 0 C6 6.27 6 12.54 6 19 C9.96 19 13.92 19 18 19 C18 20.65 18 22.3 18 24 C12.06 24 6.12 24 0 24 C0 16.08 0 8.16 0 0 Z " fill="#3A3A3C" transform="translate(1248,1204)"/>
<path d="M0 0 C1.98 0 3.96 0 6 0 C6 6.27 6 12.54 6 19 C9.96 19 13.92 19 18 19 C18 20.65 18 22.3 18 24 C12.06 24 6.12 24 0 24 C0 16.08 0 8.16 0 0 Z " fill="#3A3A3C" transform="translate(1201,1162)"/>
<path d="M0 0 C1.98 0 3.96 0 6 0 C6 6.27 6 12.54 6 19 C9.96 19 13.92 19 18 19 C18 20.65 18 22.3 18 24 C12.06 24 6.12 24 0 24 C0 16.08 0 8.16 0 0 Z " fill="#6D6E71" transform="translate(1689,1051)"/>
<path d="M0 0 C1.98 0 3.96 0 6 0 C6 6.27 6 12.54 6 19 C9.63 19 13.26 19 17 19 C17 20.65 17 22.3 17 24 C11.39 24 5.78 24 0 24 C0 16.08 0 8.16 0 0 Z " fill="#3A3A3C" transform="translate(1837,1162)"/>
<path d="M0 0 C1.98 0 3.96 0 6 0 C6 7.92 6 15.84 6 24 C4.02 24 2.04 24 0 24 C0 16.08 0 8.16 0 0 Z " fill="#3A3A3C" transform="translate(1373,1204)"/>
<path d="M0 0 C1.98 0 3.96 0 6 0 C6 7.92 6 15.84 6 24 C4.02 24 2.04 24 0 24 C0 16.08 0 8.16 0 0 Z " fill="#3A3A3C" transform="translate(1444,1162)"/>
<path d="M0 0 C1.98 0 3.96 0 6 0 C6 7.92 6 15.84 6 24 C4.02 24 2.04 24 0 24 C0 16.08 0 8.16 0 0 Z " fill="#3A3A3C" transform="translate(1034,1162)"/>
</svg>
